<?xml version="1.0" encoding="UTF-8"?>
<svg version="1.1" xmlns="http://www.w3.org/2000/svg" width="2000" height="2000">
<path d="M0 0 C660 0 1320 0 2000 0 C2000 660 2000 1320 2000 2000 C1340 2000 680 2000 0 2000 C0 1340 0 680 0 0 Z " fill="#FEFEFE" transform="translate(0,0)"/>
<path d="M0 0 C0.84594727 0.14985352 1.69189453 0.29970703 2.56347656 0.45410156 C41.63149693 7.53414681 80.37124381 24.69097515 111 50 C111.78697266 50.64485352 111.78697266 50.64485352 112.58984375 51.30273438 C124.47809765 61.06706761 136.05859224 71.2242633 146 83 C146.48968262 83.57733887 146.97936523 84.15467773 147.48388672 84.74951172 C176.71426557 119.38337806 195.95395464 160.36418078 204 205 C204.16226074 205.84143555 204.32452148 206.68287109 204.49169922 207.54980469 C215.83433715 267.59906432 200.35104431 335.14788726 166.7277832 385.72875977 C164.55567417 388.87382939 162.30348587 391.9501847 160 395 C159.54915039 395.60344238 159.09830078 396.20688477 158.63378906 396.82861328 C152.95533897 404.387118 146.89531265 411.48934089 140.4296875 418.3828125 C138.48217645 420.48061379 136.62911965 422.60309773 134.8125 424.8125 C132.19118137 427.91177986 129.2691086 430.51134864 126.17578125 433.1328125 C123.869273 435.11218583 121.66082974 437.17784194 119.4375 439.25 C108.32597416 449.24189117 95.80714896 457.37065879 83 465 C82.32163086 465.4110498 81.64326172 465.82209961 80.94433594 466.24560547 C67.91963517 474.08675701 54.19942599 479.64471604 40 485 C38.61843118 485.53240056 37.23691171 486.0649292 35.85546875 486.59765625 C-24.15032633 509.0226791 -93.56800017 501.91442564 -150.9296875 475.86328125 C-184.71696056 460.15404991 -215.90554944 436.29371707 -239 407 C-239.63035156 406.24847656 -240.26070312 405.49695313 -240.91015625 404.72265625 C-252.01581031 391.38218884 -261.01989929 376.37266693 -269 361 C-269.3501416 360.32710937 -269.7002832 359.65421875 -270.06103516 358.9609375 C-300.04293681 300.45966598 -302.73354969 230.51922832 -283.19238281 168.43408203 C-268.58432041 123.40935769 -239.25006579 81.18772279 -202 52 C-200.55753906 50.83210937 -200.55753906 50.83210937 -199.0859375 49.640625 C-173.26154551 29.11186782 -142.8037699 13.73001834 -111 5 C-110.23171875 4.78746582 -109.4634375 4.57493164 -108.671875 4.35595703 C-73.99447977 -5.03813829 -35.3775157 -6.47333266 0 0 Z " fill="#FEFEFE" transform="translate(1043,558)"/>
<path d="M0 0 C1.25232422 0.39533936 2.50464844 0.79067871 3.79492188 1.19799805 C6.3016252 1.99075977 8.80638041 2.78903907 11.31054688 3.58984375 C14.29184008 4.54128428 17.27760256 5.47624748 20.265625 6.40625 C51.95202593 16.43200135 82.15565713 30.86247877 110.75 47.6875 C111.72533691 48.25903809 112.70067383 48.83057617 113.70556641 49.41943359 C126.90720573 57.19110389 139.50028796 65.49320812 151.75 74.6875 C152.8912479 75.53216843 154.0331297 76.37598137 155.17578125 77.21875 C169.82006736 88.08566625 183.77958615 99.74556193 197.11962891 112.17480469 C198.88807585 113.81560991 200.66819008 115.4431772 202.44921875 117.0703125 C210.31100185 124.28443157 217.64743855 131.72627068 224.75 139.6875 C225.68243252 140.69889115 226.61736532 141.70798249 227.5546875 142.71484375 C233.55604807 149.16412895 239.263331 155.79183947 244.75 162.6875 C245.3677832 163.45586182 245.3677832 163.45586182 245.99804688 164.23974609 C293.15024791 222.89637512 327.26290661 292.19205013 343.13232422 365.82666016 C343.76687356 368.76565194 344.41674109 371.70103534 345.06640625 374.63671875 C359.89430542 442.53607163 358.07486114 514.45685077 343.0625 582.125 C342.89014832 582.90230469 342.71779663 583.67960938 342.54022217 584.48046875 C339.34144898 598.80139418 335.46103042 612.783849 330.75 626.6875 C330.38181152 627.78900391 330.01362305 628.89050781 329.63427734 630.02539062 C308.61811422 692.46020447 275.65834497 751.70903082 230.91015625 800.31640625 C229.73728388 801.60380865 228.57169529 802.89878322 227.44848633 804.22973633 C221.75225337 810.93620056 215.49865707 817.08953186 209.27124023 823.29663086 C207.31704376 825.2454687 205.36824853 827.19959272 203.41992188 829.15429688 C197.36753561 835.21016158 191.31776368 841.1848859 184.75 846.6875 C183.78578125 847.533125 182.8215625 848.37875 181.828125 849.25 C120.0888976 902.4617098 45.64024419 937.3265438 -33.375 955.8125 C-34.39835449 956.05411865 -35.42170898 956.2957373 -36.47607422 956.54467773 C-51.56509615 960.02227226 -66.67068444 962.23118151 -82.0625 963.8125 C-83.66606976 963.98256326 -85.26958566 964.15313509 -86.87304688 964.32421875 C-90.6767263 964.72762074 -94.48177597 965.11468618 -98.28820801 965.49118042 C-99.97576504 965.66005688 -101.66231465 965.8389466 -103.34863281 966.01977539 C-113.00187409 966.96831569 -122.68496012 966.88645959 -132.375 966.875 C-133.3183017 966.87439575 -134.26160339 966.8737915 -135.23348999 966.87316895 C-170.24379371 966.81270783 -205.02269726 964.50078579 -239.25 956.6875 C-240.52601074 956.40310059 -241.80202148 956.11870117 -243.11669922 955.82568359 C-276.98901956 948.24370345 -309.49884728 937.73458172 -341.25 923.6875 C-342.14944336 923.28966309 -343.04888672 922.89182617 -343.97558594 922.48193359 C-391.59632903 901.16624591 -434.85390564 870.80087484 -473.25 835.6875 C-473.7538623 835.22875488 -474.25772461 834.77000977 -474.77685547 834.29736328 C-484.02863102 825.86821481 -493.21587307 817.39051748 -501.35546875 807.859375 C-503.22393106 805.71738521 -505.15282402 803.6405619 -507.09594727 801.56640625 C-513.09032499 795.14571998 -518.53796396 788.40490801 -523.88818359 781.44335938 C-525.20604387 779.74417488 -526.54497111 778.0646996 -527.89453125 776.390625 C-544.76034832 755.41535452 -559.2613219 732.68707186 -572.00537109 709.00048828 C-572.85535213 707.42090406 -573.71006058 705.84385688 -574.56884766 704.26904297 C-587.43096843 680.65069021 -597.41520275 656.04253726 -606.25 630.6875 C-606.80880859 629.09518555 -606.80880859 629.09518555 -607.37890625 627.47070312 C-624.73847774 577.47385609 -631.46556815 524.77485466 -631.5625 472.0625 C-631.56814972 470.37327927 -631.56814972 470.37327927 -631.57391357 468.64993286 C-631.60962965 447.61489136 -630.32847744 426.72539404 -627.5 405.875 C-627.33298584 404.63564697 -627.16597168 403.39629395 -626.99389648 402.11938477 C-625.26441591 389.88278642 -622.75716793 377.85448097 -619.97167969 365.81933594 C-619.31738379 362.97992193 -618.68919724 360.1363584 -618.0703125 357.2890625 C-602.26482979 285.98968733 -566.68850646 214.78005836 -518.77734375 159.6171875 C-516.28670312 156.73004613 -513.88817759 153.78463333 -511.5 150.8125 C-508.51579084 147.14330332 -505.43601953 143.73909879 -502.02661133 140.46508789 C-500.27662199 138.71413662 -498.67212577 136.89901077 -497.06640625 135.015625 C-493.16537702 130.52810259 -489.02702283 126.31676213 -484.8125 122.125 C-484.10029297 121.40892578 -483.38808594 120.69285156 -482.65429688 119.95507812 C-478.57414037 115.88233335 -474.39641529 111.98543404 -470.02954102 108.22192383 C-467.7934799 106.2938618 -465.61656035 104.30456567 -463.4375 102.3125 C-416.75995076 60.30270568 -360.23754406 28.62012781 -301.25 7.6875 C-300.27740234 7.34090332 -299.30480469 6.99430664 -298.30273438 6.63720703 C-259.38434718 -7.10818885 -219.25258253 -14.57581799 -178.25 -18.3125 C-176.7486853 -18.46609985 -176.7486853 -18.46609985 -175.21704102 -18.62280273 C-117.35200622 -23.99291728 -55.44733281 -17.64128244 0 0 Z M-158.02978516 -4.28613281 C-219.56659524 -3.57726787 -281.48680269 13.69590782 -337.25 38.6875 C-338.14299805 39.08437012 -339.03599609 39.48124023 -339.95605469 39.89013672 C-353.53883146 45.96297315 -366.40284398 53.2015095 -379.25 60.6875 C-380.12333984 61.1918457 -380.99667969 61.69619141 -381.89648438 62.21582031 C-405.91432151 76.11460689 -428.30597785 92.5008141 -449.25 110.6875 C-449.98476563 111.32171875 -450.71953125 111.9559375 -451.4765625 112.609375 C-453.41187143 114.29024092 -455.33134366 115.98765774 -457.25 117.6875 C-457.94754395 118.30020752 -458.64508789 118.91291504 -459.36376953 119.54418945 C-465.90357344 125.34783742 -472.13300982 131.41607745 -478.30102539 137.6081543 C-479.94239796 139.25491404 -481.58908819 140.89622095 -483.23632812 142.53710938 C-488.78418601 148.08120805 -494.18520641 153.69337066 -499.25 159.6875 C-500.095625 160.65171875 -500.94125 161.6159375 -501.8125 162.609375 C-510.12847405 172.25803719 -517.72643591 182.41404171 -525.25 192.6875 C-525.78802246 193.4201709 -526.32604492 194.1528418 -526.88037109 194.90771484 C-538.86063833 211.30116404 -549.42665358 228.59954574 -559.05273438 246.46923828 C-560.25845226 248.70316012 -561.48056078 250.92760625 -562.703125 253.15234375 C-586.56789333 297.03287583 -602.15986207 345.89893788 -609.85302734 395.19287109 C-610.23750254 397.60896433 -610.65313612 400.01721506 -611.08203125 402.42578125 C-615.32318213 426.37686621 -616.47371731 450.45795631 -616.4375 474.75 C-616.43623108 475.64090332 -616.43496216 476.53180664 -616.43365479 477.44970703 C-616.33169793 515.30013613 -611.7639367 553.01860351 -602.25 589.6875 C-601.9199884 591.02948538 -601.5916495 592.37188416 -601.265625 593.71484375 C-594.25358219 621.54773298 -584.0206586 648.55712733 -572.25 674.6875 C-571.74799072 675.82131104 -571.74799072 675.82131104 -571.23583984 676.97802734 C-565.44918368 690.03471348 -558.42993988 702.35402911 -551.25 714.6875 C-550.73356934 715.57969238 -550.21713867 716.47188477 -549.68505859 717.39111328 C-542.78801614 729.26947639 -535.39204397 740.62651094 -527.25 751.6875 C-526.48357178 752.73212402 -526.48357178 752.73212402 -525.70166016 753.79785156 C-519.45132956 762.29234287 -513.02954608 770.60599957 -506.25 778.6875 C-505.00863281 780.18990234 -505.00863281 780.18990234 -503.7421875 781.72265625 C-493.7248102 793.7850011 -482.9343014 805.08029816 -471.875 816.1875 C-471.13822021 816.92895264 -470.40144043 817.67040527 -469.64233398 818.43432617 C-465.0060867 823.05698509 -460.20985866 827.41683026 -455.25 831.6875 C-454.12825992 832.6853139 -453.00839823 833.68524435 -451.890625 834.6875 C-441.80386729 843.65103389 -431.15502171 851.74904526 -420.25 859.6875 C-419.50959473 860.22793945 -418.76918945 860.76837891 -418.00634766 861.32519531 C-352.58835016 908.87211078 -274.74604626 939.78211795 -194.25 948.6875 C-193.53548676 948.77183289 -192.82097351 948.85616577 -192.08480835 948.9430542 C-176.27578166 950.7748838 -160.51308 951.00063553 -144.61987305 950.94824219 C-141.1445594 950.93688197 -137.66955317 950.94362198 -134.19425011 950.95510483 C-110.48606069 951.02186896 -87.17706405 949.66688942 -63.75 945.9375 C-62.92568481 945.80910736 -62.10136963 945.68071472 -61.2520752 945.5484314 C-47.05202341 943.32739153 -33.12860584 940.45471963 -19.25 936.6875 C-17.94567017 936.34017822 -17.94567017 936.34017822 -16.61499023 935.98583984 C51.00859526 917.82963865 114.11609659 885.82561855 167.75 840.6875 C168.37471191 840.16188477 168.99942383 839.63626953 169.64306641 839.09472656 C185.14111234 825.98813034 200.7188728 812.24788488 213.921875 796.79296875 C216.0602087 794.33022972 218.28084599 791.95262657 220.5 789.5625 C225.78209453 783.76897725 230.58738178 777.66550498 235.37207031 771.45947266 C236.69778028 769.75465286 238.04311971 768.06805628 239.3984375 766.38671875 C253.49096 748.85997129 265.52866643 730.15963078 276.75 710.6875 C277.28367187 709.76211426 277.81734375 708.83672852 278.3671875 707.88330078 C297.22258531 674.90430074 310.60471414 639.88339298 321.75 603.6875 C322.02714844 602.79595215 322.30429688 601.9044043 322.58984375 600.98583984 C326.46932761 588.37489604 328.83201191 575.50616009 331.2109375 562.54101562 C331.64743316 560.23043532 332.11344591 557.93537945 332.625 555.640625 C335.38666836 543.15558262 336.57859463 530.40639561 337.75 517.6875 C337.84788818 516.65061035 337.94577637 515.6137207 338.04663086 514.54541016 C340.96983724 478.24474238 340.68537657 439.64665684 334.75 403.6875 C334.61424561 402.85919678 334.47849121 402.03089355 334.33862305 401.17749023 C330.4994879 377.97651108 325.69866687 355.17051259 318.75 332.6875 C318.2869043 331.16431152 318.2869043 331.16431152 317.81445312 329.61035156 C307.51059631 296.05201873 292.68339911 262.88619444 274.75 232.6875 C274.26740723 231.87442383 273.78481445 231.06134766 273.28759766 230.22363281 C260.09855643 208.16846333 245.23004859 187.39893066 228.75 167.6875 C228.09741211 166.90536133 228.09741211 166.90536133 227.43164062 166.10742188 C213.47345117 149.4324057 198.60668877 132.63110449 181.96875 118.56640625 C180.13395677 117.01264649 178.32941703 115.43540767 176.53125 113.83984375 C167.91391104 106.22417045 159.01517853 99.09528249 149.79931641 92.21777344 C147.87456209 90.78051348 145.95831525 89.3325698 144.04296875 87.8828125 C121.12107033 70.66346542 96.28657544 56.61194664 70.75 43.6875 C69.96753906 43.28821289 69.18507813 42.88892578 68.37890625 42.47753906 C45.2424212 30.75681531 20.46402883 22.11996019 -4.30712891 14.58349609 C-6.78718145 13.82841124 -9.25912036 13.05240211 -11.73046875 12.26953125 C-58.79976885 -2.1653565 -109.17228403 -4.74956247 -158.02978516 -4.28613281 Z " fill="#C6C6C6" transform="translate(1137.25,332.3125)"/>
<path d="M0 0 C13.28081854 12.37962014 22.83110436 30.00570203 23.65234375 48.3046875 C24.22825171 70.14805366 17.9587171 89.79233323 2.77734375 105.93359375 C-12.27342127 120.83752204 -30.27276857 127.62564451 -51.25 127.8125 C-60.38673328 127.73757555 -68.22133177 127.13020019 -76.625 123.3125 C-77.65496094 122.86519531 -78.68492187 122.41789063 -79.74609375 121.95703125 C-86.41338049 118.85228974 -92.01276745 115.03065327 -97.625 110.3125 C-98.45515625 109.67183594 -99.2853125 109.03117188 -100.140625 108.37109375 C-112.01151597 98.53467937 -120.64171674 81.49487532 -122.625 66.3125 C-124.01435336 42.10925199 -120.11895453 22.95927992 -103.625 4.3125 C-103.10679687 3.70019531 -102.58859375 3.08789062 -102.0546875 2.45703125 C-75.12080927 -27.11609636 -28.93571995 -24.17160661 0 0 Z " fill="#FDFDFD" transform="translate(1069.625,705.6875)"/>
<path d="M0 0 C0.84594727 0.14985352 1.69189453 0.29970703 2.56347656 0.45410156 C41.63149693 7.53414681 80.37124381 24.69097515 111 50 C111.78697266 50.64485352 111.78697266 50.64485352 112.58984375 51.30273438 C124.47809765 61.06706761 136.05859224 71.2242633 146 83 C146.48968262 83.57733887 146.97936523 84.15467773 147.48388672 84.74951172 C176.71426557 119.38337806 195.95395464 160.36418078 204 205 C204.16226074 205.84143555 204.32452148 206.68287109 204.49169922 207.54980469 C215.83433715 267.59906432 200.35104431 335.14788726 166.7277832 385.72875977 C164.55567417 388.87382939 162.30348587 391.9501847 160 395 C159.54915039 395.60344238 159.09830078 396.20688477 158.63378906 396.82861328 C152.95533897 404.387118 146.89531265 411.48934089 140.4296875 418.3828125 C138.48217645 420.48061379 136.62911965 422.60309773 134.8125 424.8125 C132.19118137 427.91177986 129.2691086 430.51134864 126.17578125 433.1328125 C123.869273 435.11218583 121.66082974 437.17784194 119.4375 439.25 C108.32597416 449.24189117 95.80714896 457.37065879 83 465 C82.32163086 465.4110498 81.64326172 465.82209961 80.94433594 466.24560547 C67.91963517 474.08675701 54.19942599 479.64471604 40 485 C38.61843118 485.53240056 37.23691171 486.0649292 35.85546875 486.59765625 C-24.15032633 509.0226791 -93.56800017 501.91442564 -150.9296875 475.86328125 C-184.71696056 460.15404991 -215.90554944 436.29371707 -239 407 C-239.63035156 406.24847656 -240.26070312 405.49695313 -240.91015625 404.72265625 C-252.01581031 391.38218884 -261.01989929 376.37266693 -269 361 C-269.3501416 360.32710937 -269.7002832 359.65421875 -270.06103516 358.9609375 C-300.04293681 300.45966598 -302.73354969 230.51922832 -283.19238281 168.43408203 C-268.58432041 123.40935769 -239.25006579 81.18772279 -202 52 C-200.55753906 50.83210937 -200.55753906 50.83210937 -199.0859375 49.640625 C-173.26154551 29.11186782 -142.8037699 13.73001834 -111 5 C-110.23171875 4.78746582 -109.4634375 4.57493164 -108.671875 4.35595703 C-73.99447977 -5.03813829 -35.3775157 -6.47333266 0 0 Z M-224 87 C-235.43937221 99.84174708 -245.53399966 114.25483506 -253.99121094 129.21728516 C-254.97118841 130.94908464 -255.97356727 132.66814787 -256.9765625 134.38671875 C-266.44586206 151.00625768 -273.31486573 169.4810571 -278 188 C-278.17724609 188.6688623 -278.35449219 189.33772461 -278.53710938 190.02685547 C-286.82104242 221.61495757 -287.54880735 255.90228366 -282 288 C-281.80712402 289.22589844 -281.80712402 289.22589844 -281.61035156 290.4765625 C-278.18520134 312.16046518 -270.69624092 333.34373275 -261 353 C-260.59023926 353.83724609 -260.18047852 354.67449219 -259.75830078 355.53710938 C-253.74350626 367.71389028 -247.11157469 379.10507035 -239 390 C-238.56220215 390.59329102 -238.1244043 391.18658203 -237.67333984 391.79785156 C-230.45931355 401.50030263 -222.37932305 410.29921954 -214 419 C-213.2471875 419.7940625 -212.494375 420.588125 -211.71875 421.40625 C-206.5381083 426.7567488 -200.83218131 431.38060341 -195 436 C-194.05769531 436.77085937 -193.11539063 437.54171875 -192.14453125 438.3359375 C-165.7028471 459.47560219 -133.68938464 475.28326306 -100.5234375 482.24609375 C-97 483 -97 483 -93.60546875 483.99609375 C-63.10705872 492.48806708 -24.63745579 490.69622699 6 484 C6.83772949 483.82339844 7.67545898 483.64679688 8.53857422 483.46484375 C43.2098153 475.92913428 76.26374596 460.0186929 104 438 C104.86109375 437.33097656 105.7221875 436.66195313 106.609375 435.97265625 C112.39385363 431.37758964 117.84423656 426.46886519 123.25 421.4375 C123.91161133 420.82438965 124.57322266 420.2112793 125.25488281 419.57958984 C129.80871087 415.29396971 133.9708489 410.77989105 138 406 C138.48807129 405.42338623 138.97614258 404.84677246 139.47900391 404.25268555 C162.97790804 376.16892759 179.39733137 344.31217783 189 309 C189.31275879 307.88431641 189.31275879 307.88431641 189.63183594 306.74609375 C195.15062193 286.83007011 196.27811672 266.61998496 196.3125 246.0625 C196.31787781 244.77098022 196.31787781 244.77098022 196.32336426 243.45336914 C196.36005375 227.07736758 195.15520379 211.14792963 191.3125 195.1875 C190.92058472 193.53693604 190.92058472 193.53693604 190.52075195 191.85302734 C180.86415087 152.30694672 161.78249589 115.82849365 134 86 C132.80759878 84.62924817 131.61986117 83.25442137 130.4375 81.875 C123.60043997 74.0679223 116.10217891 67.47033161 108 61 C107.20851563 60.34128906 106.41703125 59.68257812 105.6015625 59.00390625 C93.71735146 49.19252272 80.60358359 41.18276865 67 34 C66.33178223 33.64083496 65.66356445 33.28166992 64.97509766 32.91162109 C43.93972481 21.7498924 20.63688802 14.53361586 -2.75 10.375 C-3.42701965 10.25444244 -4.10403931 10.13388489 -4.80157471 10.00967407 C-86.87460167 -4.29938243 -167.59359473 27.34102507 -224 87 Z " fill="#101010" transform="translate(1043,558)"/>
<path d="M0 0 C8.16686602 6.86759188 13.60855307 14.13021504 15.11999321 24.96473885 C15.25679251 27.66447532 15.27991266 30.3382463 15.25170898 33.04125977 C15.25981346 34.55576218 15.25981346 34.55576218 15.26808167 36.1008606 C15.28047785 39.4021841 15.26413952 42.70261991 15.24609375 46.00390625 C15.24624894 48.31835475 15.24774118 50.63280351 15.25050354 52.94725037 C15.25188342 57.78290383 15.23939709 62.61825921 15.21655273 67.45385742 C15.18815388 73.63279747 15.19091551 79.81124336 15.20364285 85.99022007 C15.21061772 90.76450272 15.2027903 95.53867238 15.19038582 100.3129406 C15.18589004 102.59057112 15.18551802 104.86821385 15.18945122 107.14584541 C15.19238159 110.33519233 15.17576953 113.52387242 15.15405273 116.71313477 C15.15855438 117.64172806 15.16305603 118.57032135 15.16769409 119.52705383 C15.05293697 129.73839561 12.16703732 139.25292384 5.75 147.3125 C-4.67049662 156.32841237 -15.87641908 157.86475725 -29.25 157.3125 C-38.25441693 156.47519904 -45.93836738 152.09283443 -52.125 145.5625 C-59.11718931 136.97068247 -60.39566213 127.2592538 -60.42700195 116.57202148 C-60.43685875 115.10754326 -60.43685875 115.10754326 -60.44691467 113.61347961 C-60.46660102 110.38685013 -60.47830157 107.16026716 -60.48828125 103.93359375 C-60.49235678 102.82783556 -60.4964323 101.72207737 -60.50063133 100.58281136 C-60.52147485 94.72700311 -60.53578253 88.87121815 -60.54516602 83.01538086 C-60.55621075 76.98890703 -60.59059364 70.96280441 -60.63033772 64.93646145 C-60.65657707 60.283934 -60.66486449 55.63149392 -60.66844749 50.978899 C-60.67329658 48.75871341 -60.68486224 46.53853128 -60.70348549 44.3184185 C-60.93181025 15.28898088 -60.93181025 15.28898088 -50.25 4.3125 C-35.85363182 -8.5592019 -16.69403034 -8.66805421 0 0 Z " fill="#0B0B0B" transform="translate(1175.25,1395.6875)"/>
<path d="M0 0 C7.55587733 6.32585078 12.5850229 13.53836926 14.6875 23.25 C14.776721 24.67883454 14.81795661 26.11115664 14.82121277 27.54277039 C14.82761024 28.81887428 14.82761024 28.81887428 14.83413696 30.12075806 C14.83345718 31.50864029 14.83345718 31.50864029 14.83276367 32.92456055 C14.83612228 33.90555222 14.8394809 34.88654388 14.84294128 35.89726257 C14.85244768 39.14376082 14.85439446 42.39020744 14.85546875 45.63671875 C14.85868231 47.89630657 14.86204646 50.15589418 14.86555481 52.41548157 C14.87154584 57.15581748 14.87339481 61.89613517 14.87280273 66.63647461 C14.87270129 72.69790506 14.88633541 78.75921791 14.90357494 84.82062054 C14.91471968 89.49018384 14.91672115 94.15971897 14.91619301 98.8292942 C14.91737009 101.06310238 14.92177655 103.29691136 14.92952538 105.53070641 C14.93937201 108.66337566 14.93642839 111.7957931 14.93041992 114.9284668 C14.93603943 115.84360046 14.94165894 116.75873413 14.94744873 117.70159912 C14.89291819 128.94490652 12.28113362 139.52943022 4.5625 148.0625 C-4.4633401 156.4168334 -15.70623236 157.61609172 -27.4765625 157.53515625 C-37.16997639 156.81456642 -45.27598086 152.62381125 -51.9375 145.625 C-59.42274476 136.74869205 -60.45664212 126.56096182 -60.48950195 115.38012695 C-60.49607315 114.40205582 -60.50264435 113.42398468 -60.50941467 112.41627502 C-60.52907037 109.19027621 -60.54079307 105.96432379 -60.55078125 102.73828125 C-60.55485678 101.63219198 -60.5589323 100.52610271 -60.56313133 99.38649559 C-60.58395916 93.53183557 -60.59827508 87.67719877 -60.60766602 81.82250977 C-60.61872334 75.79484567 -60.65312535 69.76755141 -60.69283772 63.74001789 C-60.71905637 59.08753297 -60.72736253 54.43513552 -60.73094749 49.78258324 C-60.73579984 47.56157114 -60.74737493 45.3405626 -60.76598549 43.11962318 C-60.94123017 20.8205122 -60.94123017 20.8205122 -56.3125 12.25 C-55.735 11.1775 -55.1575 10.105 -54.5625 9 C-40.68627115 -7.95983526 -18.98904502 -10.03194831 0 0 Z " fill="#0D0D0D" transform="translate(426.3125,1395.75)"/>
<path d="M0 0 C7.55587733 6.32585078 12.5850229 13.53836926 14.6875 23.25 C14.776721 24.67883454 14.81795661 26.11115664 14.82121277 27.54277039 C14.82761024 28.81887428 14.82761024 28.81887428 14.83413696 30.12075806 C14.83345718 31.50864029 14.83345718 31.50864029 14.83276367 32.92456055 C14.83612228 33.90555222 14.8394809 34.88654388 14.84294128 35.89726257 C14.85244768 39.14376082 14.85439446 42.39020744 14.85546875 45.63671875 C14.85868231 47.89630657 14.86204646 50.15589418 14.86555481 52.41548157 C14.87154584 57.15581748 14.87339481 61.89613517 14.87280273 66.63647461 C14.87270129 72.69790506 14.88633541 78.75921791 14.90357494 84.82062054 C14.91471968 89.49018384 14.91672115 94.15971897 14.91619301 98.8292942 C14.91737009 101.06310238 14.92177655 103.29691136 14.92952538 105.53070641 C14.93937201 108.66337566 14.93642839 111.7957931 14.93041992 114.9284668 C14.93603943 115.84360046 14.94165894 116.75873413 14.94744873 117.70159912 C14.89291819 128.94490652 12.28113362 139.52943022 4.5625 148.0625 C-4.17540943 156.13266526 -14.90854365 157.54060033 -26.32421875 157.3984375 C-36.7000543 156.88303652 -45.57700715 152.96768773 -52.7421875 145.3359375 C-59.62430198 136.19402423 -60.45692193 126.30866741 -60.48950195 115.26660156 C-60.49607315 114.2883844 -60.50264435 113.31016724 -60.50941467 112.30230713 C-60.52904147 109.0817455 -60.54078562 105.86123023 -60.55078125 102.640625 C-60.55485678 101.5354528 -60.5589323 100.43028061 -60.56313133 99.29161835 C-60.58394534 93.4434376 -60.59826804 87.59528001 -60.60766602 81.74707031 C-60.61872956 75.72728202 -60.65314274 69.70786341 -60.69283772 63.68820572 C-60.71905417 59.04001201 -60.72736226 54.39190585 -60.73094749 49.74364471 C-60.73579921 47.52542368 -60.74737248 45.30720617 -60.76598549 43.08905792 C-60.9412136 20.82603079 -60.9412136 20.82603079 -56.3125 12.25 C-55.735 11.1775 -55.1575 10.105 -54.5625 9 C-40.68627115 -7.95983526 -18.98904502 -10.03194831 0 0 Z " fill="#0D0D0D" transform="translate(1367.3125,1395.75)"/>
<path d="M0 0 C7.26 0 14.52 0 22 0 C22 52.47 22 104.94 22 159 C13.42 159 4.84 159 -4 159 C-4.79664063 155.79603516 -4.79664063 155.79603516 -5.609375 152.52734375 C-6.13870059 150.40218826 -6.66845256 148.27713946 -7.19824219 146.15209961 C-7.55936232 144.70266565 -7.92005624 143.25312542 -8.28027344 141.8034668 C-10.45106999 133.06873933 -12.68680198 124.35720123 -15.02197266 115.66479492 C-16.66264027 109.51700121 -18.23285878 103.35119808 -19.8125 97.1875 C-22.70430362 85.92219797 -25.6688709 74.67932931 -28.74145508 63.46166992 C-29.00982178 62.47658447 -29.27818848 61.49149902 -29.5546875 60.4765625 C-29.78655762 59.63174316 -30.01842773 58.78692383 -30.25732422 57.91650391 C-31.26316614 53.96654084 -32.11578746 49.97895644 -33 46 C-33.33 82.96 -33.66 119.92 -34 158 C-41.26 158 -48.52 158 -56 158 C-56 106.19 -56 54.38 -56 1 C-45.44 1 -34.88 1 -24 1 C-23.40832031 3.46210937 -22.81664062 5.92421875 -22.20703125 8.4609375 C-21.61524408 10.91391702 -21.02239071 13.36663663 -20.42944336 15.81933594 C-20.02599182 17.49061838 -19.62360395 19.16215805 -19.22241211 20.83398438 C-16.91450145 30.44786567 -14.48306062 40.00572244 -11.79614258 49.5209198 C-9.77861395 56.70007502 -8.02296063 63.92875706 -6.3125 71.1875 C-5.72662551 73.66048005 -5.13942919 76.1331474 -4.55078125 78.60546875 C-4.29981689 79.66918701 -4.04885254 80.73290527 -3.7902832 81.82885742 C-2.94014796 85.24016627 -1.96582189 88.61962339 -1 92 C-0.67 61.64 -0.34 31.28 0 0 Z " fill="#0C0C0C" transform="translate(1064,1392)"/>
<path d="M0 0 C8.25 0 16.5 0 25 0 C25 21.45 25 42.9 25 65 C33.58 65 42.16 65 51 65 C51 43.55 51 22.1 51 0 C59.25 0 67.5 0 76 0 C76 52.47 76 104.94 76 159 C67.75 159 59.5 159 51 159 C51 135.57 51 112.14 51 88 C42.42 88 33.84 88 25 88 C25 111.43 25 134.86 25 159 C16.75 159 8.5 159 0 159 C0 106.53 0 54.06 0 0 Z " fill="#0E0E0E" transform="translate(901,1392)"/>
<path d="M0 0 C5.15256654 4.1324775 9.95283341 8.58338501 14.703125 13.16796875 C15.38375 13.79703125 16.064375 14.42609375 16.765625 15.07421875 C34.38319045 31.74798605 44.22083609 57.60648423 44.921875 81.4453125 C44.96037263 83.7694225 44.99152973 86.09366482 45.015625 88.41796875 C45.03343018 89.53147705 45.05123535 90.64498535 45.06958008 91.79223633 C45.05675306 104.99321188 39.48484299 115.30122212 34.015625 127.04296875 C33.2565321 128.68211939 32.49799636 130.32152815 31.73999023 131.96118164 C30.56806869 134.49590151 29.39576582 137.03043808 28.22169495 139.56416321 C25.59192457 145.23944433 22.97669138 150.92116883 20.375 156.609375 C20.02986359 157.36357224 19.68472717 158.11776947 19.32913208 158.89482117 C17.63628326 162.59699402 15.94914477 166.3016376 14.27099609 170.01049805 C11.4258692 176.28853835 8.55624447 182.53107566 5.4453125 188.68359375 C4.72492798 190.14454468 4.72492798 190.14454468 3.98999023 191.63500977 C3.14143604 193.34578223 2.2667943 195.04410424 1.35571289 196.72241211 C-2.04284745 203.67216936 -1.32858256 210.19260566 -0.54763794 217.67068481 C-0.16721113 221.45925805 0.12114877 225.25443443 0.42189026 229.05003357 C0.94254567 235.58818765 1.49874136 242.12346686 2.04907227 248.65917969 C2.32257026 251.91454248 2.59307765 255.1701436 2.86328125 258.42578125 C2.94763931 259.41643585 3.03199738 260.40709045 3.11891174 261.42776489 C4.19187499 274.39625824 4.19187499 274.39625824 2.515625 277.04296875 C0.04805392 278.57456459 -1.44207331 278.596189 -4.296875 278.16796875 C-6.56830823 276.49189964 -7.2244437 275.49093371 -7.84745789 272.71296692 C-7.92962051 271.73752426 -8.01178314 270.7620816 -8.09643555 269.75708008 C-8.19631271 268.64774612 -8.29618988 267.53841217 -8.39909363 266.39546204 C-8.53992119 264.59095833 -8.53992119 264.59095833 -8.68359375 262.75 C-8.84369682 260.88223152 -8.84369682 260.88223152 -9.0070343 258.97673035 C-9.23095752 256.33154889 -9.44966052 253.68656304 -9.65942383 251.0402832 C-9.9768183 247.04017578 -10.32092854 243.04273715 -10.66601562 239.04492188 C-11.19471436 232.80877938 -11.6649153 226.57092391 -12.08273315 220.3263855 C-12.21287352 218.4069217 -12.35171676 216.48798679 -12.50637817 214.57034302 C-13.41693581 202.9463662 -10.43725246 195.11178577 -5.359375 184.98046875 C-4.63249389 183.47169409 -3.90893613 181.96131445 -3.18847656 180.44946289 C-1.67846131 177.28766293 -0.1541333 174.133381 1.38037109 170.98339844 C4.83373839 163.86352647 8.09898669 156.65739837 11.38040161 149.45715332 C13.14236082 145.59448721 14.91419313 141.7363734 16.6875 137.87890625 C17.02681046 137.14051514 17.36612091 136.40212402 17.7157135 135.64135742 C19.92482088 130.84072995 22.15860763 126.0522183 24.40625 121.26953125 C24.97314505 120.05875157 25.53988185 118.84789777 26.10644531 117.63696289 C27.13597043 115.44048522 28.17134595 113.24673563 29.21386719 111.05639648 C37.69220539 92.93599684 34.45510547 71.10121086 27.82617188 52.73876953 C23.88123008 42.80312791 18.56315451 34.36357922 11.703125 26.16796875 C11.06761719 25.37003906 10.43210937 24.57210937 9.77734375 23.75 C-3.81954574 7.39432134 -25.48423057 -3.31474286 -46.296875 -6.83203125 C-50.70350329 -7.07077027 -55.10981247 -7.10256798 -59.52197266 -7.12719727 C-60.9374398 -7.13860973 -62.35286768 -7.15888714 -63.76806641 -7.1887207 C-89.10351889 -7.72112808 -111.5256422 2.63100404 -129.98046875 19.74267578 C-144.78886141 34.15230521 -152.69454191 53.05689509 -157.13720703 72.92626953 C-158.15188419 76.96433585 -159.73967819 80.58722165 -161.640625 84.28125 C-162.1286837 85.25291107 -162.1286837 85.25291107 -162.62660217 86.24420166 C-163.67550771 88.32703438 -164.73591111 90.4037565 -165.796875 92.48046875 C-166.52652482 93.92346143 -167.25560668 95.36674143 -167.98413086 96.81030273 C-172.24558506 105.23463816 -176.5933889 113.61097098 -181.03857422 121.93994141 C-184.7304672 128.89117096 -188.05920789 135.99578566 -191.296875 143.16796875 C-190.47703125 143.13316406 -189.6571875 143.09835937 -188.8125 143.0625 C-187.73484375 143.03542969 -186.6571875 143.00835938 -185.546875 142.98046875 C-184.47953125 142.94566406 -183.4121875 142.91085937 -182.3125 142.875 C-178.8588631 143.21052172 -177.73894836 143.75426945 -175.296875 146.16796875 C-174.81585693 148.616745 -174.81585693 148.616745 -174.84277344 151.55737305 C-174.84322662 153.20874519 -174.84322662 153.20874519 -174.84368896 154.89347839 C-174.86433411 156.0810524 -174.88497925 157.2686264 -174.90625 158.4921875 C-174.91190979 159.70872513 -174.91756958 160.92526276 -174.92340088 162.17866516 C-174.94582466 166.07133019 -174.99603487 169.96308105 -175.046875 173.85546875 C-175.06693211 176.49152318 -175.08518425 179.12759202 -175.1015625 181.76367188 C-175.14570928 188.23208373 -175.21268213 194.69996094 -175.296875 201.16796875 C-173.36654419 201.14440308 -173.36654419 201.14440308 -171.3972168 201.12036133 C-166.62823736 201.066111 -161.85928526 201.03163645 -157.09008789 201.00317383 C-155.02493709 200.98807604 -152.9598184 200.96759601 -150.89477539 200.94165039 C-147.92846761 200.9053108 -144.96258329 200.88825245 -141.99609375 200.875 C-141.0710051 200.85951614 -140.14591644 200.84403229 -139.1927948 200.82807922 C-138.33212906 200.82785263 -137.47146332 200.82762604 -136.5847168 200.82739258 C-135.82748825 200.82073074 -135.0702597 200.81406891 -134.29008484 200.8072052 C-131.735593 201.2695587 -130.87106422 202.13964259 -129.296875 204.16796875 C-128.63671875 206.75805664 -128.63671875 206.75805664 -128.234375 209.890625 C-128.0787207 211.05650146 -127.92306641 212.22237793 -127.76269531 213.42358398 C-127.60897461 214.67985596 -127.45525391 215.93612793 -127.296875 217.23046875 C-127.13026367 218.52218994 -126.96365234 219.81391113 -126.79199219 221.14477539 C-126.44714867 223.82891437 -126.11138147 226.51396857 -125.78320312 229.20019531 C-125.3262716 232.9281326 -124.85190387 236.65348185 -124.375 240.37890625 C-121.27321598 265.19140495 -121.27321598 265.19140495 -122.296875 273.16796875 C-124.296875 275.16796875 -124.296875 275.16796875 -126.734375 275.48046875 C-129.296875 275.16796875 -129.296875 275.16796875 -130.88842773 274.09204102 C-132.98926186 271.22210277 -133.01653906 268.58605575 -133.39453125 265.0703125 C-133.5134095 264.01673805 -133.5134095 264.01673805 -133.63468933 262.94187927 C-133.88873195 260.66424767 -134.12431158 258.38513023 -134.359375 256.10546875 C-134.52912403 254.54691214 -134.70002352 252.98848041 -134.87207031 251.43017578 C-135.2072604 248.378757 -135.53563116 245.32673441 -135.85791016 242.27392578 C-136.2143061 238.91149117 -136.59549324 235.55281183 -136.99609375 232.1953125 C-137.09204834 231.38392822 -137.18800293 230.57254395 -137.28686523 229.73657227 C-137.41557007 228.65073853 -137.41557007 228.65073853 -137.546875 227.54296875 C-138.15702556 222.35668896 -138.32244966 217.37779669 -138.296875 212.16796875 C-138.85397659 212.1768512 -139.41107819 212.18573364 -139.98506165 212.19488525 C-145.7759883 212.28328227 -151.56672379 212.34367076 -157.3581543 212.38769531 C-159.52034284 212.40782833 -161.68247683 212.43513708 -163.84448242 212.46972656 C-166.94984384 212.51816992 -170.05448636 212.54092047 -173.16015625 212.55859375 C-174.12899246 212.57923889 -175.09782867 212.59988403 -176.09602356 212.62115479 C-177.44708443 212.62160797 -177.44708443 212.62160797 -178.82543945 212.62207031 C-179.61819778 212.63095276 -180.41095612 212.63983521 -181.22773743 212.64898682 C-183.296875 212.16796875 -183.296875 212.16796875 -185.05505371 210.4777832 C-186.55482053 207.68818449 -186.65959274 205.91569963 -186.63745117 202.75683594 C-186.63722458 201.67601746 -186.63699799 200.59519897 -186.63676453 199.48162842 C-186.62128067 198.32108948 -186.60579681 197.16055054 -186.58984375 195.96484375 C-186.58559891 194.77191711 -186.58135406 193.57899048 -186.57698059 192.34991455 C-186.56018523 188.53903656 -186.52253018 184.72868697 -186.484375 180.91796875 C-186.46932933 178.33464305 -186.45564072 175.75130907 -186.44335938 173.16796875 C-186.41027881 166.83445507 -186.36007024 160.50124966 -186.296875 154.16796875 C-187.48925781 154.20277344 -188.68164062 154.23757813 -189.91015625 154.2734375 C-191.47654842 154.30157628 -193.04295581 154.32887635 -194.609375 154.35546875 C-195.39505859 154.38060547 -196.18074219 154.40574219 -196.99023438 154.43164062 C-198.1262207 154.44614258 -198.1262207 154.44614258 -199.28515625 154.4609375 C-200.32990112 154.48450317 -200.32990112 154.48450317 -201.39575195 154.50854492 C-203.296875 154.16796875 -203.296875 154.16796875 -205.11010742 153.0246582 C-206.296875 151.16796875 -206.296875 151.16796875 -206.1987915 148.42875671 C-205.16665279 144.69716352 -203.64930326 141.40952618 -201.86621094 137.99536133 C-201.51321426 137.30324051 -201.16021759 136.61111969 -200.79652405 135.89802551 C-200.03168287 134.40020592 -199.26328665 132.90419742 -198.49172211 131.40983009 C-197.26291731 129.02694951 -196.04624401 126.63823078 -194.83282471 124.2474823 C-191.38186827 117.45194055 -187.91493859 110.66470276 -184.42724609 103.88793945 C-182.28985745 99.73279925 -180.17118917 95.56852723 -178.06305695 91.39847374 C-177.26471982 89.82808112 -176.45967798 88.26107469 -175.64720917 86.69794655 C-170.5243109 76.83697711 -166.91651088 67.35996101 -164.41363525 56.52128601 C-158.34152524 31.05753343 -139.36649368 10.15603969 -117.83837891 -3.58764648 C-82.03312645 -25.53420557 -34.38323755 -24.6085743 0 0 Z " fill="#101010" transform="translate(1079.296875,684.83203125)"/>
<path d="M0 0 C7.0249552 5.91341166 10.73474835 13.42246201 12.5625 22.3125 C12.88992891 26.53434337 12.8494499 30.70662548 12.75 34.9375 C12.688125 38.69125 12.62625 42.445 12.5625 46.3125 C4.9725 46.3125 -2.6175 46.3125 -10.4375 46.3125 C-10.75 36.6875 -10.75 36.6875 -10.82543945 33.68896484 C-11.03922675 28.5424648 -11.57455466 24.75815468 -14.4375 20.3125 C-18.14106336 17.04464998 -21.52828272 16.98714878 -26.25390625 17.01171875 C-28.8431763 17.36838028 -30.29376939 17.79128421 -32.4375 19.3125 C-35.80095132 24.54200433 -35.86644341 28.98094736 -35.82568359 34.98632812 C-35.83356903 36.42159096 -35.83356903 36.42159096 -35.84161377 37.885849 C-35.85478301 41.03865029 -35.8460864 44.19094386 -35.8359375 47.34375 C-35.83795911 49.54040626 -35.84087128 51.73706186 -35.84463501 53.93371582 C-35.8490542 58.53351238 -35.84264019 63.13313396 -35.82861328 67.73291016 C-35.81152181 73.62427957 -35.82136513 79.51523895 -35.83933067 85.40659332 C-35.85017933 89.94137655 -35.84671716 94.47606282 -35.8389473 99.010849 C-35.83694829 101.18293812 -35.83939402 103.35503608 -35.84638596 105.52711487 C-35.85401806 108.56453722 -35.84237114 111.60129865 -35.82568359 114.63867188 C-35.83175629 115.53339706 -35.83782898 116.42812225 -35.84408569 117.34996033 C-35.79271213 122.40612772 -35.27583211 125.94474431 -32.4375 130.3125 C-28.46674197 132.80840505 -23.99887652 132.88614167 -19.4375 132.3125 C-15.67894573 130.89260172 -14.68821279 129.79679946 -12.83276367 126.21264648 C-11.16755703 122.12290002 -10.96411159 118.34832544 -10.92578125 113.97265625 C-10.90783005 113.20569931 -10.88987885 112.43874237 -10.87138367 111.64854431 C-10.8176552 109.22408374 -10.78350725 106.79981568 -10.75 104.375 C-10.71679366 102.72067654 -10.68230098 101.06637838 -10.64648438 99.41210938 C-10.56195114 95.37904607 -10.49496321 91.34603612 -10.4375 87.3125 C-14.7275 87.3125 -19.0175 87.3125 -23.4375 87.3125 C-23.4375 79.7225 -23.4375 72.1325 -23.4375 64.3125 C-11.5575 64.3125 0.3225 64.3125 12.5625 64.3125 C12.62567574 71.92166734 12.68574892 79.52986663 12.71775055 87.1390686 C12.733493 90.68364866 12.75447529 94.22800815 12.78881836 97.77246094 C12.82810662 101.85353546 12.84229226 105.93438195 12.85546875 110.015625 C12.87095261 111.26611633 12.88643646 112.51660767 12.90238953 113.80499268 C12.90478425 126.49065567 10.84973027 138.59269442 1.8515625 148.125 C-6.70614921 155.34669764 -17.92602348 157.05266587 -28.796875 156.68359375 C-39.64970083 155.57735077 -47.25831011 151.56584898 -54.4375 143.3125 C-56.15574771 140.73979759 -57.38181592 138.21408783 -58.4375 135.3125 C-59.0253125 133.7965625 -59.0253125 133.7965625 -59.625 132.25 C-61.39517282 125.85014441 -61.58629202 119.55734426 -61.58276367 112.97167969 C-61.58612228 112.06173752 -61.5894809 111.15179535 -61.59294128 110.21427917 C-61.60240108 107.2209637 -61.60439198 104.22770447 -61.60546875 101.234375 C-61.60868509 99.14080788 -61.61204945 97.04724098 -61.61555481 94.95367432 C-61.62153387 90.56920857 -61.623396 86.1847625 -61.62280273 81.80029297 C-61.62270125 76.20435809 -61.63634447 70.60855049 -61.65357494 65.01264572 C-61.66473846 60.6887149 -61.6667206 56.36481442 -61.66619301 52.04087067 C-61.66736691 49.97897148 -61.67175529 47.91707135 -61.67952538 45.85518646 C-61.78787363 14.13093043 -61.78787363 14.13093043 -51.3125 2.5 C-37.89345537 -9.9206912 -14.761842 -10.07509749 0 0 Z " fill="#0C0C0C" transform="translate(326.4375,1396.6875)"/>
<path d="M0 0 C7.0249552 5.91341166 10.73474835 13.42246201 12.5625 22.3125 C12.88992891 26.53434337 12.8494499 30.70662548 12.75 34.9375 C12.688125 38.69125 12.62625 42.445 12.5625 46.3125 C4.9725 46.3125 -2.6175 46.3125 -10.4375 46.3125 C-10.75 36.1875 -10.75 36.1875 -10.82543945 33.03076172 C-11.03287573 27.78277539 -11.45854991 23.82118122 -14.4375 19.3125 C-18.56013955 16.6449097 -23.6755374 16.61246557 -28.4375 17.3125 C-32.5520167 19.67615853 -34.08411346 21.84095159 -35.4375 26.3125 C-35.72830965 29.40288589 -35.72100556 32.47924942 -35.7121582 35.58154297 C-35.71726913 36.50737183 -35.72238007 37.43320068 -35.72764587 38.38708496 C-35.74152858 41.44301852 -35.74058597 44.49872618 -35.73828125 47.5546875 C-35.74216912 49.68311649 -35.74650398 51.81154471 -35.75126648 53.93997192 C-35.75872601 58.4002738 -35.75843948 62.86049651 -35.75317383 67.32080078 C-35.74738195 73.02936134 -35.76430486 78.73759716 -35.7875185 84.44610405 C-35.80226951 88.84194831 -35.80312563 93.23771463 -35.80000877 97.63357925 C-35.80052137 99.73786181 -35.80574759 101.84214881 -35.81582069 103.94640732 C-35.82819302 106.89270711 -35.82138825 109.83837782 -35.80981445 112.78466797 C-35.81745819 113.64931671 -35.82510193 114.51396545 -35.83297729 115.40481567 C-35.78009635 121.51258349 -34.86224103 126.42146262 -30.8125 131.25 C-26.22702136 133.30139834 -21.37640007 132.73400001 -16.5625 131.6875 C-13.49828321 129.70477149 -12.80397354 127.68826904 -11.4375 124.3125 C-10.99801629 121.41784392 -10.9497898 118.55731534 -10.92578125 115.6328125 C-10.90783005 114.82004852 -10.88987885 114.00728455 -10.87138367 113.16989136 C-10.81751642 110.5924792 -10.78346164 108.0152497 -10.75 105.4375 C-10.71680601 103.68226638 -10.68231443 101.92705679 -10.64648438 100.171875 C-10.56180389 95.88554897 -10.49488103 91.59927488 -10.4375 87.3125 C-14.3975 87.3125 -18.3575 87.3125 -22.4375 87.3125 C-22.4375 80.0525 -22.4375 72.7925 -22.4375 65.3125 C-10.8875 65.3125 0.6625 65.3125 12.5625 65.3125 C12.64677008 73.03491682 12.72685956 80.7556337 12.76950073 88.47811127 C12.7904788 92.0755362 12.81843096 95.67257391 12.86425781 99.26977539 C12.9082481 102.74521947 12.93174676 106.22029206 12.94200897 109.69599342 C12.95281783 111.6438639 12.98395527 113.59158834 13.01568604 115.53923035 C13.018332 126.22632627 11.4244656 137.17388326 4.3125 145.6015625 C-3.67889051 153.41457375 -12.89821819 156.37358677 -23.9375 156.6875 C-34.97678181 156.37358677 -44.19610949 153.41457375 -52.1875 145.6015625 C-62.44292524 133.44888359 -61.04480737 117.151411 -61.00390625 102.27734375 C-61.0091505 99.94812269 -61.0154299 97.61890376 -61.02268982 95.28968811 C-61.03305347 90.42731676 -61.02858922 85.56523882 -61.01391602 80.70288086 C-60.99671365 74.49710126 -61.02026394 68.29224636 -61.05540562 62.08656979 C-61.07744635 57.28302471 -61.07592225 52.47969876 -61.0676403 47.67611885 C-61.06682486 45.38896227 -61.07360969 43.10178893 -61.08841133 40.8146801 C-61.23952687 13.24914116 -61.23952687 13.24914116 -50.59375 2.06640625 C-36.50411201 -9.39418697 -15.06520216 -10.28214368 0 0 Z " fill="#0B0B0B" transform="translate(1470.4375,1396.6875)"/>
<path d="M0 0 C8.46074381 4.5811134 12.96591328 12.12712711 15.875 21.125 C17.65400491 28.35545857 17.18962471 35.60463616 17 43 C9.08 43 1.16 43 -7 43 C-7.3125 35.3125 -7.3125 35.3125 -7.38793945 32.91918945 C-7.61599228 28.53069847 -8.20950248 25.57263222 -11 22 C-15.23552856 19.17631429 -19.02477314 19.33346243 -24 20 C-26.93423195 21.79646854 -28.47205355 22.9441071 -30 26 C-30.79726942 36.45599241 -30.52024212 45.20374857 -23.8828125 53.71484375 C-19.10011966 59.12989871 -13.91480449 64.03821942 -8.60913086 68.93603516 C4.88747619 81.40465236 16.12703538 93.83568188 17.10693359 113.10253906 C17.16847033 115.23614089 17.18555606 117.36555889 17.1875 119.5 C17.19974609 120.20769531 17.21199219 120.91539063 17.22460938 121.64453125 C17.25317852 132.06274469 13.89132661 142.13718207 6.75 149.875 C2.95138057 153.38459404 -1.17162276 155.26874402 -6 157 C-7.051875 157.4125 -8.10375 157.825 -9.1875 158.25 C-21.41098625 160.65462025 -33.19317245 159.5062428 -43.70703125 152.7578125 C-51.34938547 146.89910825 -55.65100816 137.41649203 -57 128 C-57.11330616 124.89409968 -57.0941367 121.79489604 -57.0625 118.6875 C-57.041875 115.820625 -57.02125 112.95375 -57 110 C-49.08 110 -41.16 110 -33 110 C-32.75 118.625 -32.75 118.625 -32.70214844 121.30712891 C-32.46956681 126.74586664 -31.51896112 129.80635085 -28 134 C-24.04603037 135.97698481 -19.29880647 135.57069292 -15 135 C-12.10316132 132.7984026 -10.60702769 131.21405538 -9 128 C-8.11276172 116.44055268 -8.47658283 107.90703871 -15.94921875 98.5625 C-18.22049788 95.95277173 -20.57801985 93.47041976 -23 91 C-23.69464355 90.28481201 -23.69464355 90.28481201 -24.40332031 89.55517578 C-30.1781964 83.52736613 -30.1781964 83.52736613 -36.484375 78.08203125 C-46.73782881 69.59586528 -53.16618803 57.89728574 -56 45 C-57.08516015 30.64629079 -56.67158949 17.42210343 -47 6 C-41.9741232 1.14377305 -36.66523076 -1.17264877 -30 -3 C-20.35292671 -6.2156911 -8.9830108 -4.23352497 0 0 Z " fill="#0D0D0D" transform="translate(1715,1394)"/>
<path d="M0 0 C7.17607874 5.76170637 11.41578646 12.40136374 12.8828125 21.51171875 C12.96252152 23.71494477 12.99053562 25.92035557 12.98046875 28.125 C12.97563477 29.99575195 12.97563477 29.99575195 12.97070312 31.90429688 C12.95813477 33.8446582 12.95813477 33.8446582 12.9453125 35.82421875 C12.94080078 37.13712891 12.93628906 38.45003906 12.93164062 39.80273438 C12.91987209 43.03908203 12.90193713 46.2754062 12.8828125 49.51171875 C5.2928125 49.51171875 -2.2971875 49.51171875 -10.1171875 49.51171875 C-10.15457031 47.76503906 -10.19195313 46.01835938 -10.23046875 44.21875 C-10.29613156 41.92055156 -10.36257879 39.62237543 -10.4296875 37.32421875 C-10.46352539 35.59848633 -10.46352539 35.59848633 -10.49804688 33.83789062 C-10.53349609 32.72607422 -10.56894531 31.61425781 -10.60546875 30.46875 C-10.63165283 29.4475708 -10.65783691 28.4263916 -10.68481445 27.37426758 C-11.18263652 24.07841001 -12.15145291 22.18652086 -14.1171875 19.51171875 C-18.98022031 16.26969688 -23.9579108 17.11912299 -29.5546875 18.13671875 C-32.31696483 19.28705242 -32.31696483 19.28705242 -33.26017761 21.99977112 C-34.34120008 26.42970167 -34.4045793 30.53524867 -34.3918457 35.07788086 C-34.39695663 36.02336288 -34.40206757 36.96884491 -34.40733337 37.94297791 C-34.42119698 41.0584044 -34.4202751 44.17360888 -34.41796875 47.2890625 C-34.42185728 49.46090273 -34.42619228 51.6327422 -34.43095398 53.80458069 C-34.43840912 58.35306261 -34.43812988 62.90146691 -34.43286133 67.44995117 C-34.42706591 73.2717017 -34.44400307 79.09313417 -34.467206 84.91483212 C-34.48195426 89.39903107 -34.48281357 93.8831536 -34.47969627 98.36737251 C-34.48020887 100.51352125 -34.48543512 102.65967433 -34.49550819 104.80579948 C-34.50787704 107.80946265 -34.50107811 110.81250845 -34.48950195 113.81616211 C-34.49714569 114.69794128 -34.50478943 115.57972046 -34.51266479 116.48822021 C-34.46664843 121.9040458 -33.7485519 125.7382437 -31.1171875 130.51171875 C-26.67318484 133.47438719 -22.32817673 133.28117769 -17.1171875 132.51171875 C-14.22034882 130.31012135 -12.72421519 128.72577413 -11.1171875 125.51171875 C-10.96222987 123.26197714 -10.86707822 121.00800339 -10.80078125 118.75390625 C-10.78000015 118.0908548 -10.75921906 117.42780334 -10.73780823 116.74465942 C-10.67239519 114.62545181 -10.61346645 112.50611975 -10.5546875 110.38671875 C-10.51149441 108.95050794 -10.46787986 107.51430973 -10.42382812 106.078125 C-10.31592841 102.55611531 -10.21679507 99.03401187 -10.1171875 95.51171875 C-2.5271875 95.51171875 5.0628125 95.51171875 12.8828125 95.51171875 C12.95211557 100.04721957 13.01171307 104.58084438 13.04760742 109.11645508 C13.06258793 110.6555813 13.0829796 112.19466563 13.10913086 113.73364258 C13.30723245 125.70130916 12.80791117 137.06723768 4.1640625 146.359375 C-5.02337146 154.94525079 -14.87495589 157.04974018 -27.1953125 156.77734375 C-38.20301213 156.03180234 -45.86514396 151.76831481 -53.1171875 143.51171875 C-61.92977696 131.53248851 -60.56302657 114.48503062 -60.515625 100.4453125 C-60.51765042 98.31787517 -60.52056574 96.19043852 -60.52432251 94.06300354 C-60.52872285 89.62437265 -60.52238837 85.185924 -60.50830078 80.74731445 C-60.49119997 75.08653749 -60.50107062 69.42618709 -60.51901817 63.76542568 C-60.52990919 59.37881818 -60.52638553 54.9923102 -60.5186348 50.60569954 C-60.51664801 48.51951101 -60.51903792 46.43331315 -60.52607346 44.34713554 C-60.6042 14.68125014 -60.6042 14.68125014 -49.48828125 2.765625 C-36.27810048 -9.52505363 -14.68266434 -9.89742354 0 0 Z " fill="#0D0D0D" transform="translate(860.1171875,1396.48828125)"/>
<path d="M0 0 C22.44 0 44.88 0 68 0 C68 7.59 68 15.18 68 23 C53.81 23 39.62 23 25 23 C25 36.86 25 50.72 25 65 C36.22 65 47.44 65 59 65 C59 72.26 59 79.52 59 87 C47.78 87 36.56 87 25 87 C25 103.17 25 119.34 25 136 C39.19 136 53.38 136 68 136 C68 143.59 68 151.18 68 159 C45.56 159 23.12 159 0 159 C0 106.53 0 54.06 0 0 Z " fill="#0E0E0E" transform="translate(470,1392)"/>
<path d="M0 0 C22.11 0 44.22 0 67 0 C67 7.26 67 14.52 67 22 C52.81 22 38.62 22 24 22 C24 35.86 24 49.72 24 64 C35.55 64 47.1 64 59 64 C59 71.59 59 79.18 59 87 C47.78 87 36.56 87 25 87 C25 102.84 25 118.68 25 135 C38.86 135 52.72 135 67 135 C67 142.59 67 150.18 67 158 C44.89 158 22.78 158 0 158 C0 105.86 0 53.72 0 0 Z " fill="#0D0D0D" transform="translate(708,1393)"/>
<path d="M0 0 C22.11 0 44.22 0 67 0 C67 7.26 67 14.52 67 22 C53.14 22 39.28 22 25 22 C25 35.86 25 49.72 25 64 C36.22 64 47.44 64 59 64 C59 71.59 59 79.18 59 87 C47.78 87 36.56 87 25 87 C25 102.84 25 118.68 25 135 C38.86 135 52.72 135 67 135 C67 142.26 67 149.52 67 157 C44.89 157 22.78 157 0 157 C0 105.19 0 53.38 0 0 Z " fill="#0C0C0C" transform="translate(1568,1393)"/>
<path d="M0 0 C8.25 0 16.5 0 25 0 C25 44.88 25 89.76 25 136 C38.53 136 52.06 136 66 136 C66 143.59 66 151.18 66 159 C44.22 159 22.44 159 0 159 C0 106.53 0 54.06 0 0 Z " fill="#101010" transform="translate(1219,1392)"/>
<path d="M0 0 C25.08 0 50.16 0 76 0 C76 7.26 76 14.52 76 22 C67.42 22 58.84 22 50 22 C50 66.55 50 111.1 50 157 C42.08 157 34.16 157 26 157 C26 112.45 26 67.9 26 22 C17.42 22 8.84 22 0 22 C0 14.74 0 7.48 0 0 Z " fill="#0A0A0A" transform="translate(607,1393)"/>
<path d="M0 0 C13.28081854 12.37962014 22.83110436 30.00570203 23.65234375 48.3046875 C24.22825171 70.14805366 17.9587171 89.79233323 2.77734375 105.93359375 C-12.27342127 120.83752204 -30.27276857 127.62564451 -51.25 127.8125 C-60.38673328 127.73757555 -68.22133177 127.13020019 -76.625 123.3125 C-77.65496094 122.86519531 -78.68492187 122.41789063 -79.74609375 121.95703125 C-86.41338049 118.85228974 -92.01276745 115.03065327 -97.625 110.3125 C-98.45515625 109.67183594 -99.2853125 109.03117188 -100.140625 108.37109375 C-112.01151597 98.53467937 -120.64171674 81.49487532 -122.625 66.3125 C-124.01435336 42.10925199 -120.11895453 22.95927992 -103.625 4.3125 C-103.10679687 3.70019531 -102.58859375 3.08789062 -102.0546875 2.45703125 C-75.12080927 -27.11609636 -28.93571995 -24.17160661 0 0 Z M-74.625 -3.6875 C-75.55054688 -3.26339844 -76.47609375 -2.83929687 -77.4296875 -2.40234375 C-84.50276872 1.11460384 -90.05242632 5.75904321 -95.625 11.3125 C-96.26308594 11.92738281 -96.90117188 12.54226563 -97.55859375 13.17578125 C-108.703218 24.76718331 -113.14404706 40.41696558 -113.04711914 56.11621094 C-112.52539097 73.42048026 -104.81880752 89.52715515 -92.3828125 101.46484375 C-78.32565321 113.47104045 -61.90518778 118.48668664 -43.62451172 117.48535156 C-38.76116652 117.06493051 -34.23753657 115.85669703 -29.625 114.3125 C-28.77679687 114.04566406 -27.92859375 113.77882813 -27.0546875 113.50390625 C-10.62557756 107.70994115 0.96592611 94.58221661 8.375 79.3125 C14.72334504 65.98991674 14.95174947 47.33988667 10.3125 33.4375 C2.96154334 16.59413152 -8.92966379 3.02414943 -26.015625 -4.1015625 C-41.00440422 -9.23318888 -60.09414981 -10.81961454 -74.625 -3.6875 Z " fill="#101010" transform="translate(1069.625,705.6875)"/>
<path d="M0 0 C8.25 0 16.5 0 25 0 C25 52.47 25 104.94 25 159 C16.75 159 8.5 159 0 159 C0 106.53 0 54.06 0 0 Z " fill="#0D0D0D" transform="translate(1512,1392)"/>
<path d="M0 0 C5.05594795 5.79946971 5.56577116 11.46240148 5.51318359 18.84179688 C5.51844055 19.75816422 5.52369751 20.67453156 5.52911377 21.6186676 C5.54225887 24.63137125 5.53359507 27.64354148 5.5234375 30.65625 C5.52545981 32.75940044 5.52837256 34.8625502 5.53213501 36.96569824 C5.53655093 41.36701148 5.53015077 45.76814168 5.51611328 50.16943359 C5.49902198 55.80173055 5.50886706 61.43359859 5.52683067 67.06587982 C5.5376882 71.406832 5.5342131 75.74768303 5.5264473 80.08863831 C5.52445074 82.16500398 5.52688537 84.24137893 5.53388596 86.31773376 C5.54153276 89.2231365 5.52985083 92.12785141 5.51318359 95.03320312 C5.52229263 96.311437 5.52229263 96.311437 5.53158569 97.61549377 C5.46771131 103.64732688 4.50107635 108.46740456 0.625 113.3125 C-3.05969951 116.07602463 -7.48428681 115.88655021 -11.875 115.4375 C-15.62399207 114.16425741 -17.34223389 113.250518 -19.51771545 109.93066406 C-21.28246104 105.38884129 -21.30309848 101.50103442 -21.27905273 96.671875 C-21.28591599 95.70527954 -21.29277924 94.73868408 -21.29985046 93.74279785 C-21.31810567 90.55754785 -21.31428309 87.37279093 -21.30859375 84.1875 C-21.31315576 81.96842285 -21.31846139 79.74934712 -21.32447815 77.53027344 C-21.33340646 72.88340508 -21.33098875 68.23670863 -21.32104492 63.58984375 C-21.30954871 57.63785835 -21.32977861 51.68646565 -21.35896206 45.73455811 C-21.37731464 41.15344481 -21.37703356 36.57247384 -21.37132454 31.99133301 C-21.37117125 29.79690723 -21.37722202 27.60247184 -21.38961601 25.40808105 C-21.40450803 22.33938465 -21.3938619 19.27178722 -21.37670898 16.203125 C-21.38637695 15.29904907 -21.39604492 14.39497314 -21.40600586 13.46350098 C-21.34015506 7.83209406 -20.55411093 4.76357577 -16.875 0.4375 C-11.85693396 -2.71671294 -5.13325294 -2.78981138 0 0 Z " fill="#FAFAFA" transform="translate(1160.875,1414.5625)"/>
<path d="M0 0 C3.22116208 2.12303864 4.16329427 3.30031583 5.75 6.8125 C6.18947477 10.06110327 6.17012626 13.28208939 6.15405273 16.55639648 C6.16091599 17.53259949 6.16777924 18.50880249 6.17485046 19.5145874 C6.19313407 22.73773797 6.18927863 25.96040251 6.18359375 29.18359375 C6.1881548 31.42652037 6.19346014 33.66944559 6.19947815 35.91236877 C6.20841235 40.61229125 6.20598252 45.31204383 6.19604492 50.01196289 C6.18455523 56.03235588 6.20476565 62.05216236 6.23396206 68.07247829 C6.25231555 72.70420553 6.25203325 77.33579199 6.24632454 81.96754646 C6.24617122 84.18709193 6.25222428 86.40664688 6.26461601 88.62615776 C6.27950758 91.73088155 6.2688617 94.834519 6.25170898 97.93920898 C6.26137695 98.8542067 6.27104492 99.76920441 6.28100586 100.71192932 C6.21724337 106.22867463 5.48415031 109.46912071 1.75 113.8125 C-2.70577347 116.78301564 -7.02442606 116.43987491 -12.25 115.8125 C-15.9536138 113.69614926 -17.62041311 111.68179325 -19.25 107.8125 C-19.50726891 105.75971413 -19.50726891 105.75971413 -19.51742554 103.5375061 C-19.52595551 102.69084885 -19.53448547 101.84419159 -19.54327393 100.97187805 C-19.54236755 100.05126083 -19.54146118 99.13064362 -19.54052734 98.18212891 C-19.54724457 97.20607193 -19.55396179 96.23001495 -19.56088257 95.22438049 C-19.57988944 91.99588946 -19.58378812 88.76760601 -19.5859375 85.5390625 C-19.59236347 83.29470738 -19.59909168 81.0503531 -19.60610962 78.80599976 C-19.61808906 74.10013893 -19.62178974 69.39435156 -19.62060547 64.68847656 C-19.62040223 58.66023472 -19.6477072 52.63246404 -19.68214989 46.60433388 C-19.70439366 41.96833129 -19.70844378 37.33244255 -19.70738602 32.69639206 C-19.70974566 30.47404735 -19.71858958 28.25169968 -19.73405075 26.0294075 C-19.75365941 22.91982328 -19.74789237 19.81126104 -19.73583984 16.70166016 C-19.74707886 15.7850914 -19.75831787 14.86852264 -19.76989746 13.92417908 C-19.7141472 8.26010669 -18.96897136 5.15365301 -15.25 0.8125 C-10.34243136 -2.10551379 -5.26804423 -1.92486231 0 0 Z " fill="#FEFEFE" transform="translate(1351.25,1414.1875)"/>
<path d="M0 0 C3.22116208 2.12303864 4.16329427 3.30031583 5.75 6.8125 C6.18947477 10.06110327 6.17012626 13.28208939 6.15405273 16.55639648 C6.16091599 17.53259949 6.16777924 18.50880249 6.17485046 19.5145874 C6.19313407 22.73773797 6.18927863 25.96040251 6.18359375 29.18359375 C6.1881548 31.42652037 6.19346014 33.66944559 6.19947815 35.91236877 C6.20841235 40.61229125 6.20598252 45.31204383 6.19604492 50.01196289 C6.18455523 56.03235588 6.20476565 62.05216236 6.23396206 68.07247829 C6.25231555 72.70420553 6.25203325 77.33579199 6.24632454 81.96754646 C6.24617122 84.18709193 6.25222428 86.40664688 6.26461601 88.62615776 C6.27950758 91.73088155 6.2688617 94.834519 6.25170898 97.93920898 C6.26137695 98.8542067 6.27104492 99.76920441 6.28100586 100.71192932 C6.21724337 106.22867463 5.48415031 109.46912071 1.75 113.8125 C-2.70577347 116.78301564 -7.02442606 116.43987491 -12.25 115.8125 C-15.9536138 113.69614926 -17.62041311 111.68179325 -19.25 107.8125 C-19.50726891 105.75971413 -19.50726891 105.75971413 -19.51742554 103.5375061 C-19.52595551 102.69084885 -19.53448547 101.84419159 -19.54327393 100.97187805 C-19.54236755 100.05126083 -19.54146118 99.13064362 -19.54052734 98.18212891 C-19.54724457 97.20607193 -19.55396179 96.23001495 -19.56088257 95.22438049 C-19.57988944 91.99588946 -19.58378812 88.76760601 -19.5859375 85.5390625 C-19.59236347 83.29470738 -19.59909168 81.0503531 -19.60610962 78.80599976 C-19.61808906 74.10013893 -19.62178974 69.39435156 -19.62060547 64.68847656 C-19.62040223 58.66023472 -19.6477072 52.63246404 -19.68214989 46.60433388 C-19.70439366 41.96833129 -19.70844378 37.33244255 -19.70738602 32.69639206 C-19.70974566 30.47404735 -19.71858958 28.25169968 -19.73405075 26.0294075 C-19.75365941 22.91982328 -19.74789237 19.81126104 -19.73583984 16.70166016 C-19.74707886 15.7850914 -19.75831787 14.86852264 -19.76989746 13.92417908 C-19.7141472 8.26010669 -18.96897136 5.15365301 -15.25 0.8125 C-10.34243136 -2.10551379 -5.26804423 -1.92486231 0 0 Z " fill="#FEFEFE" transform="translate(410.25,1414.1875)"/>
<path d="M0 0 C17.16 0 34.32 0 52 0 C52 3.63 52 7.26 52 11 C46.06 11.33 40.12 11.66 34 12 C34.99 13.65 35.98 15.3 37 17 C37 18.32 37 19.64 37 21 C41.95 21 46.9 21 52 21 C52 24.63 52 28.26 52 32 C47.05 32 42.1 32 37 32 C36.67 33.98 36.34 35.96 36 38 C32.15320615 45.0420135 26.53102292 49.34199191 19 52 C23.67466337 57.62303757 28.67765667 62.79741554 33.875 67.9375 C34.65875 68.71673828 35.4425 69.49597656 36.25 70.29882812 C38.16438581 72.20154085 40.08108034 74.10186171 42 76 C41.07347299 77.17539996 40.13336613 78.34010577 39.1875 79.5 C38.66542969 80.1496875 38.14335938 80.799375 37.60546875 81.46875 C36 83 36 83 33 83 C31.52050781 81.86781311 31.52050781 81.86781311 29.953125 80.26196289 C29.06705566 79.36587059 29.06705566 79.36587059 28.16308594 78.45167542 C27.53176758 77.79859909 26.90044922 77.14552277 26.25 76.47265625 C25.59547852 75.80914658 24.94095703 75.1456369 24.26660156 74.46202087 C22.17049747 72.33582027 20.0845249 70.20004976 18 68.0625 C15.91464971 65.92938444 13.82716366 63.79854861 11.73339844 61.6736908 C10.42943923 60.349919 9.13044479 59.021235 7.83691406 57.68727112 C7.24620117 57.08672409 6.65548828 56.48617706 6.046875 55.86743164 C5.27102051 55.07134239 5.27102051 55.07134239 4.47949219 54.25917053 C2.90581832 52.76080072 2.90581832 52.76080072 0 52 C0 48.7 0 45.4 0 42 C1.62808594 41.94392578 1.62808594 41.94392578 3.2890625 41.88671875 C4.73440739 41.82102125 6.17971839 41.75457524 7.625 41.6875 C8.33785156 41.66494141 9.05070313 41.64238281 9.78515625 41.61914062 C15.28657927 41.34154589 19.46625326 40.09689386 23.8125 36.5 C25.22630713 34.88926769 25.22630713 34.88926769 26 32 C17.42 32 8.84 32 0 32 C0 28.37 0 24.74 0 21 C8.58 21 17.16 21 26 21 C22.94364964 15.90608274 21.48877243 13.82959081 16 12 C13.26710707 11.77202438 10.54957796 11.58331813 7.8125 11.4375 C7.06291016 11.39431641 6.31332031 11.35113281 5.54101562 11.30664062 C3.69421625 11.20077315 1.84713166 11.0999024 0 11 C0 7.37 0 3.74 0 0 Z " fill="#121212" transform="translate(994,718)"/>
<path d="M0 0 C3.90485043 3.10794218 6.53458403 6.53633742 7.43554688 11.48757935 C7.58798942 13.74225478 7.61732008 15.9629918 7.59375 18.22265625 C7.5975769 19.04197128 7.60140381 19.86128632 7.60534668 20.70542908 C7.60805405 22.42741128 7.60077555 24.14943543 7.58398438 25.87133789 C7.56252826 28.49654242 7.58383832 31.11901943 7.609375 33.74414062 C7.60673205 35.42448516 7.60160775 37.10482801 7.59375 38.78515625 C7.60184692 39.56343277 7.60994385 40.34170929 7.61828613 41.14356995 C7.51413113 47.23776097 5.49600451 50.61463477 1.5 55.25 C-2.57145452 58.61337547 -8.49316763 57.88116907 -13.46875 57.85546875 C-17.75180059 57.33938045 -19.73845729 56.16641988 -22.703125 53.140625 C-26.02860638 48.5523026 -26.25769028 44.56007933 -26.2734375 38.98046875 C-26.2800943 38.15928055 -26.2867511 37.33809235 -26.29360962 36.49201965 C-26.30372107 34.75633987 -26.3084271 33.02062132 -26.30810547 31.28491211 C-26.31246802 28.64435834 -26.34877199 26.00549142 -26.38671875 23.36523438 C-26.39258958 21.67448485 -26.39655719 19.98372743 -26.3984375 18.29296875 C-26.41280853 17.51044235 -26.42717957 16.72791595 -26.44198608 15.92167664 C-26.39576621 10.30800485 -25.16160048 7.0574489 -21.9375 2.4375 C-15.64146177 -2.57363247 -7.38257023 -3.66747037 0 0 Z " fill="#FAFAFA" transform="translate(1385.9375,1626.5625)"/>
<path d="M0 0 C4.69189645 2.50499556 7.18757831 5.26585994 8.84375 10.234375 C8.97678956 13.04068385 9.05600613 15.82133382 9.08203125 18.62890625 C9.090103 19.45388107 9.09817474 20.2788559 9.10649109 21.12882996 C9.12031573 22.87468372 9.13104513 24.62056432 9.13891602 26.36645508 C9.15611972 29.02672967 9.20001773 31.68575808 9.24414062 34.34570312 C9.25426904 36.04426172 9.26278468 37.74283085 9.26953125 39.44140625 C9.28703934 40.23223099 9.30454742 41.02305573 9.32258606 41.83784485 C9.29852699 48.01100374 7.3297492 51.35061592 3.28125 56.046875 C-0.81284117 59.42895032 -6.76094742 58.61933626 -11.7578125 58.578125 C-14.91482531 58.25879497 -16.40723954 58.03879445 -18.84375 56.109375 C-23.34069519 50.51857827 -24.61737709 45.89507851 -24.58984375 38.80078125 C-24.5950856 38.00461899 -24.60032745 37.20845673 -24.60572815 36.38816833 C-24.61212491 34.7115088 -24.61084185 33.03480425 -24.60229492 31.3581543 C-24.59378581 28.80760964 -24.62257459 26.25930818 -24.65429688 23.70898438 C-24.6559093 22.07291733 -24.65533057 20.43684636 -24.65234375 18.80078125 C-24.66357773 18.04640274 -24.67481171 17.29202423 -24.68638611 16.51478577 C-24.6146137 10.99948256 -23.30760965 7.78103662 -20.15625 3.234375 C-14.26077382 -1.45794278 -7.22186394 -2.56428502 0 0 Z " fill="#FAFAFA" transform="translate(725.15625,1625.765625)"/>
<path d="M0 0 C3.40920514 2.411389 5.69634878 5.08019755 7.5625 8.8125 C7.69826345 11.64742814 7.77525409 14.45653055 7.80078125 17.29296875 C7.808853 18.13918289 7.81692474 18.98539703 7.82524109 19.85725403 C7.83908588 21.65196686 7.84980627 23.44670606 7.85766602 25.24145508 C7.87482427 27.97203397 7.91869894 30.70138469 7.96289062 33.43164062 C7.97302259 35.17707445 7.98153712 36.92251855 7.98828125 38.66796875 C8.00578934 39.47864304 8.02329742 40.28931732 8.04133606 41.1245575 C8.01976563 46.8300289 6.83668645 50.11537551 3.5625 54.8125 C-1.816039 59.08774895 -8.89905697 58.55285805 -15.4375 57.8125 C-20.58240228 55.5061645 -22.35768728 52.95494251 -24.4375 47.8125 C-24.88531543 44.78053498 -24.92897237 41.78422155 -24.94140625 38.72265625 C-24.95139145 37.85990585 -24.96137665 36.99715546 -24.97166443 36.10826111 C-24.9867969 34.29040295 -24.99389174 32.4724621 -24.9934082 30.65454102 C-24.99997361 27.88612747 -25.05451152 25.12129609 -25.11132812 22.35351562 C-25.12013106 20.58074134 -25.1260847 18.80795015 -25.12890625 17.03515625 C-25.1504628 16.2151564 -25.17201935 15.39515656 -25.19422913 14.55030823 C-25.12963821 9.0853108 -23.83351067 6.21978397 -20.11631775 2.21482849 C-14.35005909 -2.60176867 -6.8513043 -2.36681421 0 0 Z " fill="#FCFCFC" transform="translate(1195.4375,1626.1875)"/>
<path d="M0 0 C22 0 22 0 29 4 C32.94795362 8.79567373 32.4913119 13.64063645 32.34765625 19.60546875 C31.86868666 24.28214936 31.03113131 26.4105024 28 30 C24.71628706 32.07745104 22.88340615 33 19 33 C19.62829712 33.97610229 19.62829712 33.97610229 20.26928711 34.97192383 C22.16206743 37.91662844 24.049835 40.86451394 25.9375 43.8125 C26.59685547 44.83666016 27.25621094 45.86082031 27.93554688 46.91601562 C28.56396484 47.89892578 29.19238281 48.88183594 29.83984375 49.89453125 C30.71177368 51.25348511 30.71177368 51.25348511 31.60131836 52.63989258 C33 55 33 55 34 58 C31.421875 58.60546875 31.421875 58.60546875 28 58 C25.2670966 55.0837921 23.30537502 51.72631254 21.25 48.3125 C20.67378906 47.40048828 20.09757813 46.48847656 19.50390625 45.54882812 C16.94587344 41.44941657 14.7002569 37.53553109 13 33 C10.36 33 7.72 33 5 33 C5 41.25 5 49.5 5 58 C3.35 58 1.7 58 0 58 C0 38.86 0 19.72 0 0 Z " fill="#121212" transform="translate(861,1626)"/>
<path d="M0 0 C22 0 22 0 29 4 C33.63054107 9.46166383 33.59584349 14.71862712 33.39453125 21.7421875 C32.87013157 26.07237891 31.96854576 27.86182306 29 31 C28.54625 31.5775 28.0925 32.155 27.625 32.75 C21.48608515 37.47224219 13.23748776 36.13655637 6 36 C6 43.26 6 50.52 6 58 C4.02 58 2.04 58 0 58 C0 38.86 0 19.72 0 0 Z " fill="#1D1D1D" transform="translate(656,1626)"/>
<path d="M0 0 C1.98 0 3.96 0 6 0 C6.15557373 0.66829834 6.31114746 1.33659668 6.47143555 2.02514648 C7.20513988 5.16378554 7.94631887 8.30061849 8.6875 11.4375 C8.93177734 12.48744141 9.17605469 13.53738281 9.42773438 14.61914062 C11.62620969 23.88613152 14.30004656 32.82015831 17 42 C20.3 28.47 23.6 14.94 27 1 C28.32 0.67 29.64 0.34 31 0 C31.20753906 0.78117187 31.41507813 1.56234375 31.62890625 2.3671875 C35.05822413 15.25223962 38.5302116 28.12579775 42 41 C44.26079944 34.61965107 45.99427221 28.22091922 47.5 21.625 C49.18834038 14.37296986 50.93838045 7.15700444 53 0 C54.65 0 56.3 0 58 0 C57.31383192 7.38316849 55.52469961 14.39010715 53.6875 21.5625 C53.37208252 22.80797607 53.05666504 24.05345215 52.73168945 25.33666992 C49.95602628 36.26321454 47.11335317 47.16444334 44 58 C42.68 57.67 41.36 57.34 40 57 C39.75765625 55.93523437 39.5153125 54.87046875 39.265625 53.7734375 C37.35650759 45.4756019 35.28183304 37.28323234 32.87890625 29.11328125 C32.08915309 26.31580004 31.41677291 23.52982072 30.8125 20.6875 C30.39428236 17.21481927 30.39428236 17.21481927 29 16 C25.54489979 29.63748378 22.26703349 43.31643287 19 57 C17.02 57.495 17.02 57.495 15 58 C14.82460693 57.31301025 14.64921387 56.62602051 14.46850586 55.91821289 C10.88513124 41.91321945 7.21815596 27.94284755 3.22241211 14.04907227 C1.89123124 9.38200401 0.63885208 4.82415225 0 0 Z " fill="#191919" transform="translate(745,1626)"/>
<path d="M0 0 C0.99 0 1.98 0 3 0 C5.28312954 6.22802041 7.56128342 12.45784399 9.8359375 18.68896484 C10.61082509 20.80982957 11.38686354 22.93027417 12.1640625 25.05029297 C13.27905099 28.09233426 14.38993257 31.13584759 15.5 34.1796875 C15.84998047 35.13181122 16.19996094 36.08393494 16.56054688 37.06491089 C16.88087891 37.94567291 17.20121094 38.82643494 17.53125 39.73388672 C17.81548828 40.51110077 18.09972656 41.28831482 18.39257812 42.08908081 C19 44 19 44 19 46 C19.66 46 20.32 46 21 46 C21.09531006 45.20255371 21.19062012 44.40510742 21.28881836 43.58349609 C22.18590869 39.06324484 23.73521132 34.95968434 25.37890625 30.6640625 C25.71043198 29.78471039 26.0419577 28.90535828 26.38352966 27.99935913 C27.43803429 25.20592559 28.50014483 22.41545613 29.5625 19.625 C30.28110377 17.72545131 30.99920827 15.82571367 31.71679688 13.92578125 C33.47209013 9.281646 35.23420798 4.64015302 37 0 C37.99 0 38.98 0 40 0 C40 19.14 40 38.28 40 58 C38.35 58 36.7 58 35 58 C34.67 46.78 34.34 35.56 34 24 C30.04 34.89 26.08 45.78 22 57 C20.68 57 19.36 57 18 57 C14.04 46.11 10.08 35.22 6 24 C5.67 34.89 5.34 45.78 5 57 C3.35 57 1.7 57 0 57 C0 38.19 0 19.38 0 0 Z " fill="#141414" transform="translate(599,1626)"/>
<path d="M0 0 C4 1 4 1 5.82763672 3.52514648 C6.43881348 4.62930908 7.04999023 5.73347168 7.6796875 6.87109375 C8.01493439 7.46745132 8.35018127 8.0638089 8.69558716 8.67823792 C9.7677599 10.59139488 10.82172436 12.51388608 11.875 14.4375 C12.92501667 16.32660765 13.97869989 18.21363138 15.0329895 20.10035706 C15.99904422 21.83375279 16.95657445 23.57189141 17.91357422 25.31030273 C20.52231144 29.92367104 23.27323671 34.45539452 26 39 C26.33 26.13 26.66 13.26 27 0 C28.98 0 30.96 0 33 0 C33 19.14 33 38.28 33 58 C29 57 29 57 27.37182617 54.78198242 C26.85080322 53.81623291 26.32978027 52.8504834 25.79296875 51.85546875 C25.20580078 50.78490234 24.61863281 49.71433594 24.01367188 48.61132812 C23.41103516 47.48146484 22.80839844 46.35160156 22.1875 45.1875 C20.99458213 42.99289536 19.80057341 40.79888331 18.60546875 38.60546875 C18.01556152 37.51927246 17.4256543 36.43307617 16.81787109 35.31396484 C14.9660173 31.93804981 13.08780875 28.58049146 11.17578125 25.23828125 C10.33333862 23.76355347 10.33333862 23.76355347 9.47387695 22.2590332 C8.19845338 19.88892503 8.19845338 19.88892503 6 19 C6 31.87 6 44.74 6 58 C4.02 58 2.04 58 0 58 C0 38.86 0 19.72 0 0 Z " fill="#242424" transform="translate(1122,1626)"/>
<path d="M0 0 C1.32 0 2.64 0 4 0 C5.65567179 5.47852373 7.29998266 10.9603586 8.9375 16.44433594 C9.71210905 19.03657083 10.48822075 21.6283305 11.265625 24.21972656 C12.4113813 28.04107921 13.55076749 31.86429211 14.68682861 35.6885376 C15.14515051 37.22797073 15.60539315 38.76683334 16.06756592 40.30511475 C16.72466654 42.49358244 17.37480055 44.68401118 18.0234375 46.875 C18.22316162 47.53468781 18.42288574 48.19437561 18.62866211 48.87405396 C19.57983955 52.11316873 20 54.57715642 20 58 C18.35 58 16.7 58 15 58 C13.68 53.71 12.36 49.42 11 45 C5.06 44.67 -0.88 44.34 -7 44 C-7.309375 45.5675 -7.61875 47.135 -7.9375 48.75 C-8.55067798 51.85676844 -9.20497132 54.93448401 -10 58 C-11.98 58 -13.96 58 -16 58 C-14.77368628 50.51948632 -12.64307677 43.5100838 -10.31835938 36.31640625 C-8.32541483 30.11936701 -6.57922461 23.90379491 -4.9453125 17.6015625 C-3.39777394 11.70556848 -1.69599854 5.85480348 0 0 Z " fill="#1A1A1A" transform="translate(1270,1626)"/>
<path d="M0 0 C4.45028513 2.5324827 6.99398724 5.09901758 8.62109375 10.08203125 C8.80859375 13.45703125 8.80859375 13.45703125 8.62109375 16.08203125 C6.97109375 16.08203125 5.32109375 16.08203125 3.62109375 16.08203125 C3.15703125 14.44234375 3.15703125 14.44234375 2.68359375 12.76953125 C2.03771478 10.52795131 1.35878205 8.29509615 0.62109375 6.08203125 C-2.12845206 5.05320776 -4.89645207 4.86568225 -7.81640625 4.76953125 C-8.92822266 4.71345703 -8.92822266 4.71345703 -10.0625 4.65625 C-13.51778476 5.2913698 -14.9590916 6.53318285 -17.37890625 9.08203125 C-18.117597 12.0065413 -18.05638031 14.85986114 -18.0078125 17.86328125 C-18.01022446 18.71378052 -18.01263641 19.56427979 -18.01512146 20.44055176 C-18.01414341 22.23596873 -18.00075956 24.031416 -17.97583008 25.82666016 C-17.94151929 28.57298338 -17.95517142 31.31608868 -17.97460938 34.0625 C-17.96771073 35.80860743 -17.95803818 37.55470656 -17.9453125 39.30078125 C-17.95027237 40.12066528 -17.95523224 40.94054932 -17.96034241 41.78527832 C-17.88201786 45.58171512 -17.82474149 47.48207222 -15.50952148 50.59765625 C-12.81149456 52.47734041 -11.14842905 52.61796007 -7.87890625 52.58203125 C-6.94046875 52.59234375 -6.00203125 52.60265625 -5.03515625 52.61328125 C-1.52779125 51.91180825 -0.41854001 51.01985235 1.62109375 48.08203125 C2.07009535 45.3765088 2.31479009 43.03972534 2.37109375 40.33203125 C2.41556641 39.28595703 2.41556641 39.28595703 2.4609375 38.21875 C2.53127833 36.50712312 2.57849321 34.7945731 2.62109375 33.08203125 C-0.34890625 33.08203125 -3.31890625 33.08203125 -6.37890625 33.08203125 C-6.37890625 31.10203125 -6.37890625 29.12203125 -6.37890625 27.08203125 C-1.42890625 27.08203125 3.52109375 27.08203125 8.62109375 27.08203125 C8.62109375 37.31203125 8.62109375 47.54203125 8.62109375 58.08203125 C7.63109375 57.75203125 6.64109375 57.42203125 5.62109375 57.08203125 C5.29109375 56.42203125 4.96109375 55.76203125 4.62109375 55.08203125 C1.07590491 56.4796303 1.07590491 56.4796303 -2.37890625 58.08203125 C-13.07021964 59.26330923 -13.07021964 59.26330923 -17.72265625 56.8828125 C-20.78369627 54.30816655 -22.92238198 51.82851228 -24.37890625 48.08203125 C-24.5951836 45.22989646 -24.70679216 42.47786704 -24.71484375 39.625 C-24.72150055 38.8038118 -24.72815735 37.9826236 -24.73501587 37.1365509 C-24.74512732 35.40087112 -24.74983335 33.66515257 -24.74951172 31.92944336 C-24.75387427 29.28888959 -24.79017824 26.65002267 -24.828125 24.00976562 C-24.83399583 22.3190161 -24.83796344 20.62825868 -24.83984375 18.9375 C-24.85421478 18.1549736 -24.86858582 17.3724472 -24.88339233 16.56620789 C-24.83717246 10.9525361 -23.60300673 7.70198015 -20.37890625 3.08203125 C-14.38392977 -1.68948064 -7.27363477 -2.8067392 0 0 Z " fill="#232323" transform="translate(1003.37890625,1625.91796875)"/>
<path d="M0 0 C0.99 0 1.98 0 3 0 C3.44802979 0.78536133 3.89605957 1.57072266 4.35766602 2.37988281 C6.05512564 5.35475347 7.75310642 8.32932549 9.45141602 11.30371094 C10.17980803 12.57963736 10.90800511 13.85567509 11.63598633 15.13183594 C12.69558515 16.98924174 13.7559365 18.84621634 14.81640625 20.703125 C15.45006104 21.81333008 16.08371582 22.92353516 16.73657227 24.06738281 C19.80103227 29.39176225 22.90457747 34.69356137 26 40 C26.33 26.8 26.66 13.6 27 0 C28.65 0 30.3 0 32 0 C32 18.81 32 37.62 32 57 C28 56 28 56 26.38769531 53.8137207 C25.87303711 52.86070068 25.35837891 51.90768066 24.828125 50.92578125 C24.24546875 49.86423828 23.6628125 48.80269531 23.0625 47.70898438 C22.464375 46.58814453 21.86625 45.46730469 21.25 44.3125 C20.06844609 42.1415254 18.88614873 39.97095526 17.703125 37.80078125 C16.48109375 35.55652344 15.2590625 33.31226563 14 31 C10.04 24.07 10.04 24.07 6 17 C5.67 30.53 5.34 44.06 5 58 C3.35 58 1.7 58 0 58 C0 38.86 0 19.72 0 0 Z " fill="#0F0F0F" transform="translate(1409,1626)"/>
<path d="M0 0 C0.99 0 1.98 0 3 0 C3.44802979 0.78536133 3.89605957 1.57072266 4.35766602 2.37988281 C6.05512564 5.35475347 7.75310642 8.32932549 9.45141602 11.30371094 C10.17980803 12.57963736 10.90800511 13.85567509 11.63598633 15.13183594 C12.69558515 16.98924174 13.7559365 18.84621634 14.81640625 20.703125 C15.45006104 21.81333008 16.08371582 22.92353516 16.73657227 24.06738281 C19.80103227 29.39176225 22.90457747 34.69356137 26 40 C26.33 26.8 26.66 13.6 27 0 C28.65 0 30.3 0 32 0 C32 18.81 32 37.62 32 57 C28 56 28 56 26.38769531 53.8137207 C25.87303711 52.86070068 25.35837891 51.90768066 24.828125 50.92578125 C24.24546875 49.86423828 23.6628125 48.80269531 23.0625 47.70898438 C22.464375 46.58814453 21.86625 45.46730469 21.25 44.3125 C20.06844609 42.1415254 18.88614873 39.97095526 17.703125 37.80078125 C16.48109375 35.55652344 15.2590625 33.31226563 14 31 C10.04 24.07 10.04 24.07 6 17 C5.67 30.53 5.34 44.06 5 58 C3.35 58 1.7 58 0 58 C0 38.86 0 19.72 0 0 Z " fill="#0F0F0F" transform="translate(1073,1626)"/>
<path d="M0 0 C0.99 0 1.98 0 3 0 C3.44802979 0.78536133 3.89605957 1.57072266 4.35766602 2.37988281 C6.05512564 5.35475347 7.75310642 8.32932549 9.45141602 11.30371094 C10.17980803 12.57963736 10.90800511 13.85567509 11.63598633 15.13183594 C12.69558515 16.98924174 13.7559365 18.84621634 14.81640625 20.703125 C15.45006104 21.81333008 16.08371582 22.92353516 16.73657227 24.06738281 C19.80103227 29.39176225 22.90457747 34.69356137 26 40 C26.33 26.8 26.66 13.6 27 0 C28.65 0 30.3 0 32 0 C32 18.81 32 37.62 32 57 C28 56 28 56 26.38769531 53.8137207 C25.87303711 52.86070068 25.35837891 51.90768066 24.828125 50.92578125 C24.24546875 49.86423828 23.6628125 48.80269531 23.0625 47.70898438 C22.464375 46.58814453 21.86625 45.46730469 21.25 44.3125 C20.06844609 42.1415254 18.88614873 39.97095526 17.703125 37.80078125 C16.48109375 35.55652344 15.2590625 33.31226563 14 31 C10.04 24.07 10.04 24.07 6 17 C5.67 30.53 5.34 44.06 5 58 C3.35 58 1.7 58 0 58 C0 38.86 0 19.72 0 0 Z " fill="#0F0F0F" transform="translate(931,1626)"/>
<path d="M0 0 C3.90485043 3.10794218 6.53458403 6.53633742 7.43554688 11.48757935 C7.58798942 13.74225478 7.61732008 15.9629918 7.59375 18.22265625 C7.5975769 19.04197128 7.60140381 19.86128632 7.60534668 20.70542908 C7.60805405 22.42741128 7.60077555 24.14943543 7.58398438 25.87133789 C7.56252826 28.49654242 7.58383832 31.11901943 7.609375 33.74414062 C7.60673205 35.42448516 7.60160775 37.10482801 7.59375 38.78515625 C7.60184692 39.56343277 7.60994385 40.34170929 7.61828613 41.14356995 C7.51413113 47.23776097 5.49600451 50.61463477 1.5 55.25 C-2.57145452 58.61337547 -8.49316763 57.88116907 -13.46875 57.85546875 C-17.75180059 57.33938045 -19.73845729 56.16641988 -22.703125 53.140625 C-26.02860638 48.5523026 -26.25769028 44.56007933 -26.2734375 38.98046875 C-26.2800943 38.15928055 -26.2867511 37.33809235 -26.29360962 36.49201965 C-26.30372107 34.75633987 -26.3084271 33.02062132 -26.30810547 31.28491211 C-26.31246802 28.64435834 -26.34877199 26.00549142 -26.38671875 23.36523438 C-26.39258958 21.67448485 -26.39655719 19.98372743 -26.3984375 18.29296875 C-26.41280853 17.51044235 -26.42717957 16.72791595 -26.44198608 15.92167664 C-26.39576621 10.30800485 -25.16160048 7.0574489 -21.9375 2.4375 C-15.64146177 -2.57363247 -7.38257023 -3.66747037 0 0 Z M-19.9375 8.4375 C-21.46833294 11.49916589 -21.14206142 14.71643922 -21.17578125 18.078125 C-21.183853 18.83792664 -21.19192474 19.59772827 -21.20024109 20.3805542 C-21.21408138 21.99114705 -21.22480379 23.60176922 -21.23266602 25.21240234 C-21.2498376 27.6643111 -21.29371634 30.1148566 -21.33789062 32.56640625 C-21.34802156 34.1328026 -21.35653641 35.69921041 -21.36328125 37.265625 C-21.38078934 37.99396545 -21.39829742 38.72230591 -21.41633606 39.47271729 C-21.39319149 44.96160617 -19.82906334 48.54593666 -15.9375 52.4375 C-13.28625861 52.75442463 -13.28625861 52.75442463 -10.1875 52.8125 C-9.14078125 52.86148437 -8.0940625 52.91046875 -7.015625 52.9609375 C-2.78279528 52.24114158 -1.56214347 50.8085767 1.0625 47.4375 C1.79272876 44.48583307 1.78779291 41.62369178 1.76171875 38.59375 C1.76887405 37.74703735 1.77602936 36.90032471 1.78340149 36.0279541 C1.79116505 34.24276784 1.78619473 32.45748635 1.76928711 30.67236328 C1.7500537 27.94511485 1.78946311 25.22295995 1.83398438 22.49609375 C1.83427474 20.75780948 1.83113453 19.01952054 1.82421875 17.28125 C1.84714241 16.06387146 1.84714241 16.06387146 1.87052917 14.82189941 C1.79933969 10.49269798 1.79933969 10.49269798 -0.24191284 6.8019104 C-4.12597051 3.45561221 -6.80466535 2.67018461 -11.75 2.9375 C-15.49681398 3.79391462 -17.30913495 5.67771669 -19.9375 8.4375 Z " fill="#1D1D1D" transform="translate(1385.9375,1626.5625)"/>
<path d="M0 0 C4.69189645 2.50499556 7.18757831 5.26585994 8.84375 10.234375 C8.97678956 13.04068385 9.05600613 15.82133382 9.08203125 18.62890625 C9.090103 19.45388107 9.09817474 20.2788559 9.10649109 21.12882996 C9.12031573 22.87468372 9.13104513 24.62056432 9.13891602 26.36645508 C9.15611972 29.02672967 9.20001773 31.68575808 9.24414062 34.34570312 C9.25426904 36.04426172 9.26278468 37.74283085 9.26953125 39.44140625 C9.28703934 40.23223099 9.30454742 41.02305573 9.32258606 41.83784485 C9.29852699 48.01100374 7.3297492 51.35061592 3.28125 56.046875 C-0.81284117 59.42895032 -6.76094742 58.61933626 -11.7578125 58.578125 C-14.91482531 58.25879497 -16.40723954 58.03879445 -18.84375 56.109375 C-23.34069519 50.51857827 -24.61737709 45.89507851 -24.58984375 38.80078125 C-24.5950856 38.00461899 -24.60032745 37.20845673 -24.60572815 36.38816833 C-24.61212491 34.7115088 -24.61084185 33.03480425 -24.60229492 31.3581543 C-24.59378581 28.80760964 -24.62257459 26.25930818 -24.65429688 23.70898438 C-24.6559093 22.07291733 -24.65533057 20.43684636 -24.65234375 18.80078125 C-24.66357773 18.04640274 -24.67481171 17.29202423 -24.68638611 16.51478577 C-24.6146137 10.99948256 -23.30760965 7.78103662 -20.15625 3.234375 C-14.26077382 -1.45794278 -7.22186394 -2.56428502 0 0 Z M-18.15625 9.234375 C-19.01762695 12.18790493 -18.97559749 15.01770686 -18.91796875 18.078125 C-18.92133743 18.92483765 -18.92470612 19.77155029 -18.92817688 20.6439209 C-18.92787866 22.4291798 -18.91268878 24.21449069 -18.88354492 25.99951172 C-18.84386415 28.72653005 -18.86284242 31.4486828 -18.88867188 34.17578125 C-18.88111222 35.9140813 -18.87015819 37.65237058 -18.85546875 39.390625 C-18.86245285 40.20221069 -18.86943695 41.01379639 -18.87663269 41.84997559 C-18.77073832 46.11225912 -18.51620687 47.77544582 -15.79614258 51.2434082 C-12.67509583 53.59725415 -11.03379595 53.93671255 -7.15625 53.921875 C-6.145625 53.94636719 -5.135 53.97085937 -4.09375 53.99609375 C-0.72045223 53.12136893 0.65677764 51.75882872 2.79394531 49.05552673 C4.63526537 45.86129141 4.51660236 42.5233771 4.4375 38.94921875 C4.43754028 38.17050919 4.43758057 37.39179962 4.43762207 36.5894928 C4.43228477 34.95142498 4.41477867 33.31335625 4.38574219 31.67553711 C4.3438103 29.17547007 4.34468461 26.67809465 4.3515625 24.17773438 C4.34107098 22.58071055 4.32813307 20.98370052 4.3125 19.38671875 C4.31219788 18.2724778 4.31219788 18.2724778 4.31188965 17.13572693 C4.21067537 12.67669366 3.57532359 9.79120754 0.84375 6.234375 C-1.90169925 4.39100193 -4.24984774 3.89474138 -7.53125 3.796875 C-8.26085937 3.75691406 -8.99046875 3.71695312 -9.7421875 3.67578125 C-13.36098782 4.5131412 -15.87984814 6.36811603 -18.15625 9.234375 Z " fill="#1B1B1B" transform="translate(725.15625,1625.765625)"/>
<path d="M0 0 C10.89 0 21.78 0 33 0 C33 1.65 33 3.3 33 5 C24.09 5 15.18 5 6 5 C6 11.93 6 18.86 6 26 C13.26 26 20.52 26 28 26 C28 27.65 28 29.3 28 31 C20.74 31 13.48 31 6 31 C6 38.26 6 45.52 6 53 C14.91 53 23.82 53 33 53 C33 54.65 33 56.3 33 58 C22.11 58 11.22 58 0 58 C0 38.86 0 19.72 0 0 Z " fill="#202020" transform="translate(552,1626)"/>
<path d="M0 0 C3.40920514 2.411389 5.69634878 5.08019755 7.5625 8.8125 C7.69826345 11.64742814 7.77525409 14.45653055 7.80078125 17.29296875 C7.808853 18.13918289 7.81692474 18.98539703 7.82524109 19.85725403 C7.83908588 21.65196686 7.84980627 23.44670606 7.85766602 25.24145508 C7.87482427 27.97203397 7.91869894 30.70138469 7.96289062 33.43164062 C7.97302259 35.17707445 7.98153712 36.92251855 7.98828125 38.66796875 C8.00578934 39.47864304 8.02329742 40.28931732 8.04133606 41.1245575 C8.01976563 46.8300289 6.83668645 50.11537551 3.5625 54.8125 C-1.816039 59.08774895 -8.89905697 58.55285805 -15.4375 57.8125 C-20.58240228 55.5061645 -22.35768728 52.95494251 -24.4375 47.8125 C-24.88531543 44.78053498 -24.92897237 41.78422155 -24.94140625 38.72265625 C-24.95139145 37.85990585 -24.96137665 36.99715546 -24.97166443 36.10826111 C-24.9867969 34.29040295 -24.99389174 32.4724621 -24.9934082 30.65454102 C-24.99997361 27.88612747 -25.05451152 25.12129609 -25.11132812 22.35351562 C-25.12013106 20.58074134 -25.1260847 18.80795015 -25.12890625 17.03515625 C-25.1504628 16.2151564 -25.17201935 15.39515656 -25.19422913 14.55030823 C-25.12963821 9.0853108 -23.83351067 6.21978397 -20.11631775 2.21482849 C-14.35005909 -2.60176867 -6.8513043 -2.36681421 0 0 Z M-18.4375 7.8125 C-20.02756531 10.99263063 -19.62167077 14.43220657 -19.640625 17.92578125 C-19.64632507 18.73234665 -19.65202515 19.53891205 -19.65789795 20.36991882 C-19.66735195 22.07887458 -19.67388352 23.7878486 -19.67773438 25.49682617 C-19.6874232 28.10433041 -19.718435 30.71104078 -19.75 33.31835938 C-19.75653185 34.97916199 -19.76178161 36.63997024 -19.765625 38.30078125 C-19.7779718 39.07803055 -19.7903186 39.85527985 -19.80303955 40.65608215 C-19.78437716 45.22006913 -19.29495823 48.19632834 -16.4375 51.8125 C-13.75182703 53.15533649 -11.56003147 53.05537519 -8.5625 53.125 C-7.51320313 53.16238281 -6.46390625 53.19976563 -5.3828125 53.23828125 C-1.76197687 52.7148448 -0.68378216 51.62818857 1.5625 48.8125 C3.15207359 45.63335283 2.76783722 42.19265618 2.80078125 38.69921875 C2.808853 37.89265335 2.81692474 37.08608795 2.82524109 36.25508118 C2.83908143 34.54613393 2.84980382 32.83715904 2.85766602 31.12817383 C2.87486506 28.5204597 2.91874794 25.91401813 2.96289062 23.30664062 C2.97301897 21.64584265 2.98153463 19.9850339 2.98828125 18.32421875 C3.00578934 17.54696945 3.02329742 16.76972015 3.04133606 15.96891785 C3.02648222 12.24254626 2.70286148 10.03913172 0.72338867 6.84301758 C-2.88733377 3.45013784 -6.48879886 3.48107735 -11.2109375 3.51953125 C-14.50555697 3.95303381 -16.20267216 5.43799542 -18.4375 7.8125 Z " fill="#111111" transform="translate(1195.4375,1626.1875)"/>
<path d="M0 0 C10.56 0 21.12 0 32 0 C32 1.65 32 3.3 32 5 C23.09 5 14.18 5 5 5 C5 11.93 5 18.86 5 26 C12.26 26 19.52 26 27 26 C27 27.65 27 29.3 27 31 C19.74 31 12.48 31 5 31 C5 38.26 5 45.52 5 53 C13.91 53 22.82 53 32 53 C32 54.32 32 55.64 32 57 C21.44 57 10.88 57 0 57 C0 38.19 0 19.38 0 0 Z " fill="#0D0D0D" transform="translate(816,1626)"/>
<path d="M0 0 C1.65 0 3.3 0 5 0 C7.35361387 5.6486733 8.86950935 11.32655296 10.29882812 17.2734375 C12.50216124 26.28631713 15.27480065 35.13401813 18 44 C18.1858667 43.30664551 18.3717334 42.61329102 18.56323242 41.89892578 C22.31403792 27.91518313 26.09159339 13.94058395 30 0 C31.98 0 33.96 0 36 0 C35.22543884 4.34427779 34.01512785 8.52903828 32.75 12.75 C32.29681698 14.27602444 31.84369364 15.8020666 31.390625 17.328125 C31.15923828 18.10478516 30.92785156 18.88144531 30.68945312 19.68164062 C29.82523821 22.58765509 28.96926638 25.49603728 28.1159668 28.40527344 C27.70587099 29.79989177 27.29327869 31.19377846 26.87817383 32.58691406 C25.76990393 36.31611006 24.71168648 40.051856 23.71484375 43.8125 C23.50085937 44.59689453 23.286875 45.38128906 23.06640625 46.18945312 C22.6552439 47.70002784 22.2575092 49.2143385 21.875 50.73242188 C21.30859375 52.78125 21.30859375 52.78125 20 56 C17.84765625 56.96875 17.84765625 56.96875 16 57 C13.79507816 50.7018988 11.79660452 44.39916451 10.125 37.9375 C8.57811818 31.96481743 6.78310423 26.11638098 4.875 20.25 C2.70782851 13.56253686 0.91139824 6.99262441 0 0 Z " fill="#171717" transform="translate(1214,1626)"/>
<path d="M0 0 C3.83625 -0.061875 3.83625 -0.061875 7.75 -0.125 C8.54889648 -0.14320801 9.34779297 -0.16141602 10.17089844 -0.18017578 C16.95346749 -0.23313791 16.95346749 -0.23313791 20 2 C22.48833262 5.73249893 22.36309518 7.91946402 22.4375 12.375 C22.47746094 13.68210937 22.51742187 14.98921875 22.55859375 16.3359375 C21.87412133 20.82569366 20.48600055 22.20071535 17 25 C13.93618406 26.53190797 10.73034134 26.10243613 7.375 26.0625 C4.94125 26.041875 2.5075 26.02125 0 26 C0 17.42 0 8.84 0 0 Z " fill="#F6F6F6" transform="translate(661,1631)"/>
<path d="M0 0 C2.51625 -0.103125 5.0325 -0.20625 7.625 -0.3125 C8.79603271 -0.38078003 8.79603271 -0.38078003 9.99072266 -0.45043945 C13.80875657 -0.52555944 16.37021005 -0.16681363 19.484375 2.14453125 C23.10535773 6.25468401 22.72736528 8.91942562 22.46875 14.17578125 C21.87440155 17.75673069 20.75912815 19.64662599 18 22 C14.81453711 23.59273144 11.36800652 23.10141833 7.875 23.0625 C5.27625 23.041875 2.6775 23.02125 0 23 C0 15.41 0 7.82 0 0 Z " fill="#FBFBFB" transform="translate(866,1631)"/>
<path d="M0 0 C10.89 0 21.78 0 33 0 C33 1.65 33 3.3 33 5 C28.38 5 23.76 5 19 5 C19 22.49 19 39.98 19 58 C17.35 58 15.7 58 14 58 C14 40.51 14 23.02 14 5 C9.38 5 4.76 5 0 5 C0 3.35 0 1.7 0 0 Z " fill="#0D0D0D" transform="translate(1294,1626)"/>
<path d="M0 0 C1.65 0 3.3 0 5 0 C5 19.14 5 38.28 5 58 C3.35 58 1.7 58 0 58 C0 38.86 0 19.72 0 0 Z " fill="#0B0B0B" transform="translate(1339,1626)"/>
<path d="M0 0 C1.65 0 3.3 0 5 0 C5 18.81 5 37.62 5 57 C3.35 57 1.7 57 0 57 C0 38.19 0 19.38 0 0 Z " fill="#121212" transform="translate(1051,1626)"/>
<path d="M0 0 C1.65 0 3.3 0 5 0 C5 18.81 5 37.62 5 57 C3.35 57 1.7 57 0 57 C0 38.19 0 19.38 0 0 Z " fill="#121212" transform="translate(909,1626)"/>
<path d="M0 0 C3.32759923 1.55194754 5.48580485 3.30621949 8 6 C6.34136495 10.32504836 3.128959 13.09418825 -0.125 16.25 C-0.68832031 16.80429687 -1.25164062 17.35859375 -1.83203125 17.9296875 C-3.21686028 19.29104485 -4.60783204 20.64614859 -6 22 C-7.17539996 21.07347299 -8.34010577 20.13336613 -9.5 19.1875 C-10.1496875 18.66542969 -10.799375 18.14335938 -11.46875 17.60546875 C-13 16 -13 16 -13 13 C-11.80664062 11.46606445 -11.80664062 11.46606445 -10.15625 9.86328125 C-9.56972656 9.28642578 -8.98320313 8.70957031 -8.37890625 8.11523438 C-7.75886719 7.52033203 -7.13882812 6.92542969 -6.5 6.3125 C-5.87996094 5.70599609 -5.25992187 5.09949219 -4.62109375 4.47460938 C-3.08735293 2.97626257 -1.54451802 1.48723507 0 0 Z " fill="#131313" transform="translate(1104,668)"/>
<path d="M0 0 C1.4835001 0.42257276 2.96176424 0.86356322 4.4375 1.3125 C5.67306641 1.67794922 5.67306641 1.67794922 6.93359375 2.05078125 C7.95646484 2.52064453 7.95646484 2.52064453 9 3 C10.13665504 6.40996511 9.91583208 6.86305848 8.56640625 10.01171875 C8.24736328 10.76904297 7.92832031 11.52636719 7.59960938 12.30664062 C7.25736328 13.09232422 6.91511719 13.87800781 6.5625 14.6875 C6.22412109 15.48478516 5.88574219 16.28207031 5.53710938 17.10351562 C4.6999299 19.07265607 3.8510647 21.03682084 3 23 C-0.55079859 22.33758211 -3.67457466 21.42518229 -7 20 C-6.29937517 15.43263559 -4.68729793 11.4300495 -2.9375 7.1875 C-2.51500977 6.14819336 -2.51500977 6.14819336 -2.08398438 5.08789062 C-1.39325027 3.39032376 -0.69716272 1.69493688 0 0 Z " fill="#131313" transform="translate(1062,642)"/>
<path d="M0 0 C3.26956547 3.26956547 4.57367519 6.35061647 6.1875 10.5625 C6.46013672 11.24763672 6.73277344 11.93277344 7.01367188 12.63867188 C9 17.71152491 9 17.71152491 9 20 C4.05 21.485 4.05 21.485 -1 23 C-2.17578304 20.42047597 -3.340791 17.83696062 -4.5 15.25 C-5.00080078 14.15558594 -5.00080078 14.15558594 -5.51171875 13.0390625 C-5.82753906 12.33007812 -6.14335938 11.62109375 -6.46875 10.890625 C-6.76201172 10.24125977 -7.05527344 9.59189453 -7.35742188 8.92285156 C-8 7 -8 7 -8 3 C-5.36 2.01 -2.72 1.02 0 0 Z " fill="#131313" transform="translate(976,642)"/>
<path d="M0 0 C3.37308761 1.12436254 4.15123097 2.07342733 6.375 4.75 C9.12534216 7.99668841 11.94652216 11.03905179 15 14 C13.34807388 18.20490286 11.98771331 18.80982935 8 22 C3.38 17.38 -1.24 12.76 -6 8 C-4.21844267 4.43688534 -2.83236991 2.64354525 0 0 Z " fill="#0F0F0F" transform="translate(932,666)"/>
<path d="M0 0 C2.14214236 2.14214236 2.4947885 3.11597426 3.2890625 5.95703125 C3.61777344 7.13168945 3.61777344 7.13168945 3.953125 8.33007812 C4.17484375 9.14927734 4.3965625 9.96847656 4.625 10.8125 C4.85445312 11.62009766 5.08390625 12.42769531 5.3203125 13.25976562 C6.4800479 17.47416124 7 20.51686726 7 25 C2.38 25 -2.24 25 -7 25 C-6.42958936 19.23755617 -5.29316462 14.05983041 -3.5 8.5625 C-3.27441406 7.84384766 -3.04882812 7.12519531 -2.81640625 6.38476562 C-1.14358313 1.14358313 -1.14358313 1.14358313 0 0 Z " fill="#F2F2F2" transform="translate(1272,1640)"/>
<path d="M0 0 C3.3 0 6.6 0 10 0 C10 6.6 10 13.2 10 20 C6.7 20 3.4 20 0 20 C0 13.4 0 6.8 0 0 Z " fill="#0A0A0A" transform="translate(1015,635)"/>
<path d="M0 0 C2.12508244 3.18762365 2.5020163 5.26512223 3 9 C2.34 9 1.68 9 1 9 C1 44.31 1 79.62 1 116 C-6.59 116 -14.18 116 -22 116 C-22 115.67 -22 115.34 -22 115 C-14.74 115 -7.48 115 0 115 C0 77.05 0 39.1 0 0 Z " fill="#C8C8C8" transform="translate(1030,1435)"/>
</svg>
